<svg width="12" height="12" viewBox="0 0 12 12" fill="none" xmlns="http://www.w3.org/2000/svg">
<path d="M7.5 8.49994V8.99994C7.5 9.39777 7.34196 9.7793 7.06066 10.0606C6.77936 10.3419 6.39782 10.4999 6 10.4999C5.60218 10.4999 5.22064 10.3419 4.93934 10.0606C4.65804 9.7793 4.5 9.39777 4.5 8.99994V8.49994M7.5 8.49994H4.5M7.5 8.49994H9.5C9.63261 8.49994 9.75979 8.44726 9.85355 8.3535C9.94732 8.25973 10 8.13255 10 7.99994V7.70694C9.99997 7.57434 9.94728 7.44719 9.8535 7.35344L9.5985 7.09844C9.56725 7.06729 9.54246 7.03028 9.52556 6.98952C9.50865 6.94876 9.49997 6.90507 9.5 6.86094V4.99994C9.5 4.91194 9.49667 4.82461 9.49 4.73794M4.5 8.49994H2.5C2.36739 8.49994 2.24021 8.44726 2.14645 8.3535C2.05268 8.25973 2 8.13255 2 7.99994V7.70694C2.00003 7.57434 2.05273 7.44719 2.1465 7.35344L2.4015 7.09794C2.43269 7.06685 2.45744 7.02992 2.47435 6.98925C2.49125 6.94858 2.49997 6.90498 2.5 6.86094V4.99994C2.49989 4.45278 2.62807 3.91321 2.87425 3.42456C3.12042 2.9359 3.47774 2.51177 3.91751 2.18621C4.35728 1.86065 4.86725 1.64273 5.40649 1.54994C5.94573 1.45716 6.49921 1.49209 7.0225 1.65194M9.49 4.73794C9.74089 4.59474 9.95777 4.39889 10.1257 4.16386C10.2937 3.92883 10.4088 3.66021 10.463 3.37646C10.5172 3.09272 10.5094 2.8006 10.4399 2.52019C10.3705 2.23978 10.2411 1.97775 10.0607 1.75211C9.88033 1.52647 9.65321 1.34259 9.39497 1.21312C9.13673 1.08364 8.85351 1.01164 8.56479 1.00207C8.27607 0.992507 7.98871 1.0456 7.72247 1.1577C7.45622 1.2698 7.21743 1.43874 7.0225 1.65194M9.49 4.73794C9.07602 4.97423 8.59126 5.0549 8.12307 4.96541C7.65488 4.87592 7.23405 4.62216 6.9364 4.24984C6.63876 3.87753 6.48387 3.41115 6.49966 2.93474C6.51544 2.45834 6.70086 2.00374 7.0225 1.65194M7.0225 1.65194H7.0235" stroke="#AD1D18" stroke-linecap="round" stroke-linejoin="round"/>
</svg>
