<svg width="24" height="24" viewBox="0 0 24 24" fill="none" xmlns="http://www.w3.org/2000/svg">
<rect width="24" height="24" rx="4" fill="white"/>
<path d="M13.5 14.4999V14.9999C13.5 15.3978 13.342 15.7793 13.0607 16.0606C12.7794 16.3419 12.3978 16.4999 12 16.4999C11.6022 16.4999 11.2206 16.3419 10.9393 16.0606C10.658 15.7793 10.5 15.3978 10.5 14.9999V14.4999M13.5 14.4999H10.5M13.5 14.4999H15.5C15.6326 14.4999 15.7598 14.4473 15.8536 14.3535C15.9473 14.2597 16 14.1326 16 13.9999V13.7069C16 13.5743 15.9473 13.4472 15.8535 13.3534L15.5985 13.0984C15.5673 13.0673 15.5425 13.0303 15.5256 12.9895C15.5087 12.9488 15.5 12.9051 15.5 12.8609V10.9999C15.5 10.9119 15.4967 10.8246 15.49 10.7379M10.5 14.4999H8.5C8.36739 14.4999 8.24021 14.4473 8.14645 14.3535C8.05268 14.2597 8 14.1326 8 13.9999V13.7069C8.00003 13.5743 8.05273 13.4472 8.1465 13.3534L8.4015 13.0979C8.43269 13.0669 8.45744 13.0299 8.47435 12.9892C8.49125 12.9486 8.49997 12.905 8.5 12.8609V10.9999C8.49989 10.4528 8.62807 9.91321 8.87425 9.42456C9.12042 8.9359 9.47774 8.51177 9.91751 8.18621C10.3573 7.86065 10.8672 7.64273 11.4065 7.54994C11.9457 7.45716 12.4992 7.49209 13.0225 7.65194M15.49 10.7379C15.7409 10.5947 15.9578 10.3989 16.1257 10.1639C16.2937 9.92883 16.4088 9.66021 16.463 9.37646C16.5172 9.09272 16.5094 8.8006 16.4399 8.52019C16.3705 8.23978 16.2411 7.97775 16.0607 7.75211C15.8803 7.52647 15.6532 7.34259 15.395 7.21312C15.1367 7.08364 14.8535 7.01164 14.5648 7.00207C14.2761 6.99251 13.9887 7.0456 13.7225 7.1577C13.4562 7.2698 13.2174 7.43874 13.0225 7.65194M15.49 10.7379C15.076 10.9742 14.5913 11.0549 14.1231 10.9654C13.6549 10.8759 13.234 10.6222 12.9364 10.2498C12.6388 9.87753 12.4839 9.41115 12.4997 8.93474C12.5154 8.45834 12.7009 8.00374 13.0225 7.65194M13.0225 7.65194H13.0235" stroke="#AD1D18" stroke-linecap="round" stroke-linejoin="round"/>
</svg>
