<svg width="71" height="77" viewBox="0 0 71 77" fill="none" xmlns="http://www.w3.org/2000/svg">
<path id="Vector" d="M10.5204 0.880005H60.9204C63.5937 0.880005 66.1577 1.6765 68.0481 3.09429C69.9385 4.51204 71.0005 6.43496 71.0005 8.44V68.92C71.0005 70.9251 69.9385 72.848 68.0481 74.2658C66.1577 75.6834 63.5937 76.48 60.9204 76.48H10.5204C7.84706 76.48 5.28317 75.6834 3.39281 74.2658C1.50243 72.848 0.44043 70.9251 0.44043 68.92V8.44C0.44043 6.43496 1.50243 4.51204 3.39281 3.09429C5.28317 1.6765 7.84706 0.880005 10.5204 0.880005ZM10.5204 8.44V23.56H60.9204V8.44H10.5204ZM10.5204 31.12V38.68H20.6004V31.12H10.5204ZM30.6804 31.12V38.68H40.7605V31.12H30.6804ZM50.8406 31.12V38.68H60.9204V31.12H50.8406ZM10.5204 46.24V53.8H20.6004V46.24H10.5204ZM30.6804 46.24V53.8H40.7605V46.24H30.6804ZM50.8406 46.24V53.8H60.9204V46.24H50.8406ZM10.5204 61.36V68.92H20.6004V61.36H10.5204ZM30.6804 61.36V68.92H40.7605V61.36H30.6804ZM50.8406 61.36V68.92H60.9204V61.36H50.8406Z" fill="white"/>
</svg>
