<svg width="24" height="24" viewBox="0 0 24 24" fill="none" xmlns="http://www.w3.org/2000/svg">
<rect width="24" height="24" rx="4" fill="white"/>
<g clip-path="url(#clip0_731_1474)">
<path d="M17.5 17H8.5C8.10218 17 7.72064 16.842 7.43934 16.5607C7.15804 16.2794 7 15.8978 7 15.5V6.5C7 6.36739 6.94732 6.24021 6.85355 6.14645C6.75979 6.05268 6.63261 6 6.5 6C6.36739 6 6.24021 6.05268 6.14645 6.14645C6.05268 6.24021 6 6.36739 6 6.5V15.5C6.00079 16.1628 6.26444 16.7982 6.73311 17.2669C7.20178 17.7356 7.8372 17.9992 8.5 18H17.5C17.6326 18 17.7598 17.9473 17.8536 17.8536C17.9473 17.7598 18 17.6326 18 17.5C18 17.3674 17.9473 17.2402 17.8536 17.1464C17.7598 17.0527 17.6326 17 17.5 17Z" fill="#AD1D18"/>
<path d="M9 15.9999C9.13261 15.9999 9.25978 15.9473 9.35355 15.8535C9.44732 15.7597 9.5 15.6325 9.5 15.4999V11.9999C9.5 11.8673 9.44732 11.7402 9.35355 11.6464C9.25978 11.5526 9.13261 11.4999 9 11.4999C8.86739 11.4999 8.74021 11.5526 8.64645 11.6464C8.55268 11.7402 8.5 11.8673 8.5 11.9999V15.4999C8.5 15.6325 8.55268 15.7597 8.64645 15.8535C8.74021 15.9473 8.86739 15.9999 9 15.9999Z" fill="#AD1D18"/>
<path d="M11 11V15.5C11 15.6326 11.0527 15.7598 11.1464 15.8535C11.2402 15.9473 11.3674 16 11.5 16C11.6326 16 11.7598 15.9473 11.8536 15.8535C11.9473 15.7598 12 15.6326 12 15.5V11C12 10.8674 11.9473 10.7402 11.8536 10.6464C11.7598 10.5527 11.6326 10.5 11.5 10.5C11.3674 10.5 11.2402 10.5527 11.1464 10.6464C11.0527 10.7402 11 10.8674 11 11Z" fill="#AD1D18"/>
<path d="M13.5 12.5V15.5C13.5 15.6326 13.5527 15.7598 13.6464 15.8535C13.7402 15.9473 13.8674 16 14 16C14.1326 16 14.2598 15.9473 14.3536 15.8535C14.4473 15.7598 14.5 15.6326 14.5 15.5V12.5C14.5 12.3674 14.4473 12.2402 14.3536 12.1464C14.2598 12.0527 14.1326 12 14 12C13.8674 12 13.7402 12.0527 13.6464 12.1464C13.5527 12.2402 13.5 12.3674 13.5 12.5Z" fill="#AD1D18"/>
<path d="M16 10.4999V15.4999C16 15.6325 16.0527 15.7597 16.1464 15.8535C16.2402 15.9473 16.3674 15.9999 16.5 15.9999C16.6326 15.9999 16.7598 15.9473 16.8536 15.8535C16.9473 15.7597 17 15.6325 17 15.4999V10.4999C17 10.3673 16.9473 10.2402 16.8536 10.1464C16.7598 10.0526 16.6326 9.99994 16.5 9.99994C16.3674 9.99994 16.2402 10.0526 16.1464 10.1464C16.0527 10.2402 16 10.3673 16 10.4999Z" fill="#AD1D18"/>
<path d="M8.99989 10.5C9.13249 10.4999 9.25965 10.4472 9.35339 10.3535L11.1464 8.56046C11.2417 8.46967 11.3683 8.41903 11.4999 8.41903C11.6315 8.41903 11.7581 8.46967 11.8534 8.56046L12.9394 9.64646C13.2207 9.92767 13.6021 10.0856 13.9999 10.0856C14.3976 10.0856 14.7791 9.92767 15.0604 9.64646L17.8534 6.85346C17.9445 6.75916 17.9949 6.63286 17.9937 6.50176C17.9926 6.37066 17.94 6.24525 17.8473 6.15255C17.7546 6.05985 17.6292 6.00726 17.4981 6.00612C17.367 6.00498 17.2407 6.05538 17.1464 6.14646L14.3534 8.93896C14.2596 9.03269 14.1325 9.08535 13.9999 9.08535C13.8673 9.08535 13.7402 9.03269 13.6464 8.93896L12.5604 7.85346C12.2791 7.57225 11.8976 7.41428 11.4999 7.41428C11.1021 7.41428 10.7207 7.57225 10.4394 7.85346L8.64639 9.64646C8.57649 9.71639 8.52889 9.80547 8.5096 9.90244C8.49032 9.99942 8.50022 10.0999 8.53805 10.1913C8.57589 10.2826 8.63996 10.3607 8.72216 10.4157C8.80437 10.4706 8.90102 10.4999 8.99989 10.5Z" fill="#AD1D18"/>
</g>
<defs>
<clipPath id="clip0_731_1474">
<rect width="12" height="12" fill="white" transform="translate(6 6)"/>
</clipPath>
</defs>
</svg>
