<svg width="24" height="24" viewBox="0 0 24 24" fill="none" xmlns="http://www.w3.org/2000/svg">
<rect width="24" height="24" rx="4" fill="white"/>
<path d="M11.3797 7.51406L10.182 8.71172C9.82344 8.81016 9.49063 8.99062 9.20938 9.23906L8.58594 9.79453C8.34687 10.0078 8.03516 10.125 7.71406 10.125H7.25V13.125C7.72813 13.1391 8.18281 13.3336 8.52266 13.6734L9.35703 14.5078L9.52109 14.6719L10.1539 15.3047C10.2992 15.45 10.5383 15.45 10.6836 15.3047C10.7234 15.2648 10.7539 15.218 10.7703 15.1688C10.8359 14.9883 10.9883 14.8523 11.1758 14.8102C11.3633 14.768 11.5602 14.8242 11.6961 14.9625L11.9492 15.2109C12.2211 15.4828 12.6617 15.4828 12.9312 15.2109C13.0578 15.0844 13.1258 14.9227 13.1328 14.7563C13.1422 14.55 13.2641 14.3672 13.4516 14.2781C13.6391 14.1891 13.857 14.2078 14.0234 14.3273C14.2437 14.4844 14.5508 14.4633 14.7477 14.2664C14.968 14.0461 14.968 13.6898 14.7477 13.4719L12.9711 11.6953L12.132 12.4688C11.4922 13.0594 10.5102 13.0687 9.85859 12.4898C9.11562 11.8289 9.09922 10.6758 9.82109 9.99375L11.4641 8.44219C12.1062 7.8375 12.9547 7.5 13.8383 7.5C14.6844 7.5 15.5023 7.81172 16.1328 8.37187L16.8383 9H19.625C19.8313 9 20 9.16875 20 9.375V14.25C20 14.6648 19.6648 15 19.25 15H18.5C18.2234 15 17.9797 14.85 17.8508 14.625H15.8609C15.7812 14.782 15.6758 14.932 15.5445 15.0633C15.1438 15.4641 14.5883 15.6211 14.068 15.5344C13.9836 15.7055 13.8687 15.8648 13.7258 16.0078C13.0859 16.6477 12.0852 16.7109 11.3727 16.1977C10.7844 16.6852 9.90781 16.6547 9.35703 16.1016L8.72656 15.4688L8.5625 15.3047L7.72813 14.4703C7.59922 14.3414 7.43047 14.2664 7.25 14.2523C7.25 14.6648 6.9125 15 6.5 15H5.75C5.33516 15 5 14.6648 5 14.25V9.375C5 9.16875 5.16875 9 5.375 9H7.71406C7.76094 9 7.80547 8.98359 7.83828 8.95312L8.45938 8.4C9.11328 7.82109 9.95469 7.5 10.8289 7.5H11.0703C11.1734 7.5 11.2789 7.50469 11.3797 7.51406ZM17.75 13.5V10.125H16.625C16.4867 10.125 16.3531 10.0734 16.2523 9.98203L15.3875 9.21328C14.9609 8.83359 14.4102 8.625 13.8383 8.625C13.243 8.625 12.6711 8.85234 12.2375 9.26016L10.5945 10.8117C10.3531 11.0414 10.3578 11.4281 10.6062 11.6484C10.8242 11.843 11.1547 11.8383 11.368 11.6414L13.0531 10.0852C13.2805 9.87422 13.6367 9.88828 13.8477 10.118C14.0586 10.3477 14.0445 10.7016 13.8148 10.9125L13.7961 10.9312L15.5398 12.675C15.7742 12.9094 15.9266 13.1977 15.9945 13.4977H17.7477L17.75 13.5ZM6.5 13.875C6.5 13.7755 6.46049 13.6802 6.39017 13.6098C6.31984 13.5395 6.22446 13.5 6.125 13.5C6.02554 13.5 5.93016 13.5395 5.85983 13.6098C5.78951 13.6802 5.75 13.7755 5.75 13.875C5.75 13.9745 5.78951 14.0698 5.85983 14.1402C5.93016 14.2105 6.02554 14.25 6.125 14.25C6.22446 14.25 6.31984 14.2105 6.39017 14.1402C6.46049 14.0698 6.5 13.9745 6.5 13.875ZM18.875 14.25C18.9745 14.25 19.0698 14.2105 19.1402 14.1402C19.2105 14.0698 19.25 13.9745 19.25 13.875C19.25 13.7755 19.2105 13.6802 19.1402 13.6098C19.0698 13.5395 18.9745 13.5 18.875 13.5C18.7755 13.5 18.6802 13.5395 18.6098 13.6098C18.5395 13.6802 18.5 13.7755 18.5 13.875C18.5 13.9745 18.5395 14.0698 18.6098 14.1402C18.6802 14.2105 18.7755 14.25 18.875 14.25Z" fill="#AD1D18"/>
</svg>
