<svg width="24" height="24" viewBox="0 0 24 24" fill="none" xmlns="http://www.w3.org/2000/svg">
<rect width="24" height="24" rx="4" fill="white"/>
<g clip-path="url(#clip0_731_1478)">
<path d="M11.6049 7.65522C11.6445 7.61577 11.6924 7.58567 11.7451 7.56712C11.7978 7.54856 11.854 7.54203 11.9096 7.548C11.9652 7.55397 12.0187 7.57228 12.0663 7.6016C12.1139 7.63093 12.1543 7.67051 12.1846 7.71747L12.4074 8.06247L10.3126 10.1572L9.96762 9.93447C9.92066 9.90416 9.88108 9.86373 9.85175 9.81615C9.82243 9.76856 9.80412 9.71503 9.79815 9.65945C9.79218 9.60388 9.79871 9.54767 9.81727 9.49495C9.83582 9.44223 9.86592 9.39432 9.90537 9.35472L11.6049 7.65522ZM10.9576 10.5727L12.8229 8.70747L13.6599 10.005C13.7468 10.1393 13.8613 10.2536 13.9959 10.3402L15.2934 11.1772L13.4266 13.0425L12.5904 11.745C12.5035 11.6106 12.3889 11.4963 12.2544 11.4097L10.9576 10.5727ZM15.9376 11.5927L16.2826 11.8147C16.3297 11.845 16.3694 11.8855 16.3988 11.9331C16.4282 11.9808 16.4466 12.0344 16.4526 12.0901C16.4585 12.1458 16.452 12.2021 16.4333 12.2549C16.4147 12.3077 16.3845 12.3556 16.3449 12.3952L14.6454 14.0947C14.6058 14.1343 14.5578 14.1645 14.505 14.1832C14.4522 14.2018 14.3959 14.2084 14.3402 14.2024C14.2846 14.1964 14.2309 14.1781 14.1833 14.1487C14.1356 14.1193 14.0952 14.0796 14.0649 14.0325L13.8429 13.6875L15.9376 11.5927ZM12.8154 7.31022C12.7243 7.16907 12.6029 7.05009 12.4599 6.96201C12.3168 6.87394 12.1559 6.819 11.9889 6.80123C11.8219 6.78347 11.653 6.80332 11.4947 6.85934C11.3363 6.91536 11.1926 7.00613 11.0739 7.12497L9.37512 8.82447C9.25659 8.9432 9.16611 9.08694 9.11032 9.24516C9.05452 9.40337 9.03482 9.57207 9.05265 9.73889C9.07048 9.9057 9.1254 10.0664 9.21338 10.2093C9.30136 10.3521 9.42017 10.4735 9.56112 10.5645L10.6284 11.253L7.18962 14.6925C7.04636 14.8308 6.93208 14.9964 6.85347 15.1794C6.77486 15.3624 6.73348 15.5592 6.73175 15.7584C6.73002 15.9575 6.76797 16.1551 6.84339 16.3394C6.91881 16.5237 7.03019 16.6912 7.17103 16.8321C7.31187 16.9729 7.47935 17.0843 7.66369 17.1597C7.84804 17.2351 8.04555 17.2731 8.24472 17.2713C8.44389 17.2696 8.64072 17.2282 8.82373 17.1496C9.00673 17.071 9.17225 16.9567 9.31062 16.8135L12.7501 13.3755L13.4356 14.439C13.5266 14.5801 13.648 14.699 13.7909 14.787C13.9338 14.8751 14.0946 14.9301 14.2616 14.9479C14.4285 14.9657 14.5973 14.946 14.7556 14.8901C14.9139 14.8342 15.0576 14.7436 15.1764 14.625L16.8751 12.9255C16.9938 12.8067 17.0844 12.663 17.1403 12.5047C17.1961 12.3464 17.2159 12.1776 17.1981 12.0107C17.1802 11.8437 17.1253 11.6829 17.0372 11.54C16.9491 11.3971 16.8302 11.2757 16.6891 11.1847L14.4016 9.71022C14.3568 9.68112 14.3187 9.64276 14.2899 9.59772L12.8154 7.31022ZM12.3331 12.7305L8.78037 16.2825C8.63892 16.4191 8.44947 16.4947 8.25282 16.493C8.05617 16.4913 7.86806 16.4124 7.72901 16.2733C7.58995 16.1343 7.51108 15.9462 7.50937 15.7495C7.50766 15.5529 7.58325 15.3634 7.71987 15.222L11.2726 11.6692L11.8479 12.0397C11.8927 12.0688 11.9308 12.1072 11.9596 12.1522L12.3331 12.7305ZM12.0001 16.875C12.0001 16.7755 12.0396 16.6801 12.11 16.6098C12.1803 16.5395 12.2757 16.5 12.3751 16.5H13.5001C13.4007 16.5 13.3053 16.4605 13.235 16.3901C13.1646 16.3198 13.1251 16.2244 13.1251 16.125C13.1251 16.0255 13.1646 15.9301 13.235 15.8598C13.3053 15.7895 13.4007 15.75 13.5001 15.75H15.7501C15.8496 15.75 15.945 15.7895 16.0153 15.8598C16.0856 15.9301 16.1251 16.0255 16.1251 16.125C16.1251 16.2244 16.0856 16.3198 16.0153 16.3901C15.945 16.4605 15.8496 16.5 15.7501 16.5H16.8751C16.9746 16.5 17.07 16.5395 17.1403 16.6098C17.2106 16.6801 17.2501 16.7755 17.2501 16.875C17.2501 16.9744 17.2106 17.0698 17.1403 17.1401C17.07 17.2105 16.9746 17.25 16.8751 17.25H12.3751C12.2757 17.25 12.1803 17.2105 12.11 17.1401C12.0396 17.0698 12.0001 16.9744 12.0001 16.875Z" fill="#AD1D18"/>
</g>
<defs>
<clipPath id="clip0_731_1478">
<rect width="12" height="12" fill="white" transform="translate(6 6)"/>
</clipPath>
</defs>
</svg>
