<svg width="199" height="50" viewBox="0 0 199 50" fill="none" xmlns="http://www.w3.org/2000/svg">
<g filter="url(#filter0_b_239_884)">
<rect width="147" height="50" rx="8" fill="white" fill-opacity="0.8"/>
<path d="M42.7727 23H41.3636C41.2803 22.5947 41.1345 22.2386 40.9261 21.9318C40.7216 21.625 40.4716 21.3674 40.1761 21.1591C39.8845 20.947 39.5606 20.7879 39.2045 20.6818C38.8485 20.5758 38.4773 20.5227 38.0909 20.5227C37.3864 20.5227 36.7481 20.7008 36.1761 21.0568C35.608 21.4129 35.1553 21.9375 34.8182 22.6307C34.4848 23.3239 34.3182 24.1742 34.3182 25.1818C34.3182 26.1894 34.4848 27.0398 34.8182 27.733C35.1553 28.4261 35.608 28.9508 36.1761 29.3068C36.7481 29.6629 37.3864 29.8409 38.0909 29.8409C38.4773 29.8409 38.8485 29.7879 39.2045 29.6818C39.5606 29.5758 39.8845 29.4186 40.1761 29.2102C40.4716 28.9981 40.7216 28.7386 40.9261 28.4318C41.1345 28.1212 41.2803 27.7652 41.3636 27.3636H42.7727C42.6667 27.9583 42.4735 28.4905 42.1932 28.9602C41.9129 29.4299 41.5644 29.8295 41.1477 30.1591C40.7311 30.4848 40.2633 30.733 39.7443 30.9034C39.2292 31.0739 38.678 31.1591 38.0909 31.1591C37.0985 31.1591 36.2159 30.9167 35.4432 30.4318C34.6705 29.947 34.0625 29.2576 33.6193 28.3636C33.1761 27.4697 32.9545 26.4091 32.9545 25.1818C32.9545 23.9545 33.1761 22.8939 33.6193 22C34.0625 21.1061 34.6705 20.4167 35.4432 19.9318C36.2159 19.447 37.0985 19.2045 38.0909 19.2045C38.678 19.2045 39.2292 19.2898 39.7443 19.4602C40.2633 19.6307 40.7311 19.8807 41.1477 20.2102C41.5644 20.536 41.9129 20.9337 42.1932 21.4034C42.4735 21.8693 42.6667 22.4015 42.7727 23ZM48.4134 31.1818C47.6255 31.1818 46.9342 30.9943 46.3395 30.6193C45.7486 30.2443 45.2865 29.7197 44.9531 29.0455C44.6236 28.3712 44.4588 27.5833 44.4588 26.6818C44.4588 25.7727 44.6236 24.9792 44.9531 24.3011C45.2865 23.6231 45.7486 23.0966 46.3395 22.7216C46.9342 22.3466 47.6255 22.1591 48.4134 22.1591C49.2012 22.1591 49.8906 22.3466 50.4815 22.7216C51.0762 23.0966 51.5384 23.6231 51.8679 24.3011C52.2012 24.9792 52.3679 25.7727 52.3679 26.6818C52.3679 27.5833 52.2012 28.3712 51.8679 29.0455C51.5384 29.7197 51.0762 30.2443 50.4815 30.6193C49.8906 30.9943 49.2012 31.1818 48.4134 31.1818ZM48.4134 29.9773C49.0118 29.9773 49.5043 29.8239 49.8906 29.517C50.277 29.2102 50.563 28.8068 50.7486 28.3068C50.9342 27.8068 51.027 27.2652 51.027 26.6818C51.027 26.0985 50.9342 25.5549 50.7486 25.0511C50.563 24.5473 50.277 24.1402 49.8906 23.8295C49.5043 23.5189 49.0118 23.3636 48.4134 23.3636C47.8149 23.3636 47.3224 23.5189 46.9361 23.8295C46.5497 24.1402 46.2637 24.5473 46.0781 25.0511C45.8925 25.5549 45.7997 26.0985 45.7997 26.6818C45.7997 27.2652 45.8925 27.8068 46.0781 28.3068C46.2637 28.8068 46.5497 29.2102 46.9361 29.517C47.3224 29.8239 47.8149 29.9773 48.4134 29.9773ZM55.7557 25.75V31H54.4148V22.2727H55.7102V23.6364H55.8239C56.0284 23.1932 56.339 22.8371 56.7557 22.5682C57.1723 22.2955 57.7102 22.1591 58.3693 22.1591C58.9602 22.1591 59.4773 22.2803 59.9205 22.5227C60.3636 22.7614 60.7083 23.125 60.9545 23.6136C61.2008 24.0985 61.3239 24.7121 61.3239 25.4545V31H59.983V25.5455C59.983 24.8598 59.8049 24.3258 59.4489 23.9432C59.0928 23.5568 58.6042 23.3636 57.983 23.3636C57.5549 23.3636 57.1723 23.4564 56.8352 23.642C56.5019 23.8277 56.2386 24.0985 56.0455 24.4545C55.8523 24.8106 55.7557 25.2424 55.7557 25.75ZM67.5696 22.2727V23.4091H63.0469V22.2727H67.5696ZM64.3651 20.1818H65.706V28.5C65.706 28.8788 65.7609 29.1629 65.8707 29.3523C65.9844 29.5379 66.1283 29.6629 66.3026 29.7273C66.4806 29.7879 66.6681 29.8182 66.8651 29.8182C67.0128 29.8182 67.134 29.8106 67.2287 29.7955C67.3234 29.7765 67.3991 29.7614 67.456 29.75L67.7287 30.9545C67.6378 30.9886 67.5109 31.0227 67.348 31.0568C67.1851 31.0947 66.9787 31.1136 66.7287 31.1136C66.3499 31.1136 65.9787 31.0322 65.6151 30.8693C65.2552 30.7064 64.956 30.4583 64.7173 30.125C64.4825 29.7917 64.3651 29.3712 64.3651 28.8636V20.1818ZM72.1548 31.2045C71.6018 31.2045 71.0999 31.1004 70.6491 30.892C70.1984 30.6799 69.8404 30.375 69.5753 29.9773C69.3101 29.5758 69.1776 29.0909 69.1776 28.5227C69.1776 28.0227 69.276 27.6174 69.473 27.3068C69.67 26.9924 69.9332 26.7462 70.2628 26.5682C70.5923 26.3902 70.956 26.2576 71.3537 26.1705C71.7552 26.0795 72.1586 26.0076 72.5639 25.9545C73.0942 25.8864 73.5241 25.8352 73.8537 25.8011C74.187 25.7633 74.4295 25.7008 74.581 25.6136C74.7363 25.5265 74.8139 25.375 74.8139 25.1591V25.1136C74.8139 24.553 74.6605 24.1174 74.3537 23.8068C74.0507 23.4962 73.5904 23.3409 72.973 23.3409C72.3329 23.3409 71.831 23.4811 71.4673 23.7614C71.1037 24.0417 70.848 24.3409 70.7003 24.6591L69.4276 24.2045C69.6548 23.6742 69.9579 23.2614 70.3366 22.9659C70.7192 22.6667 71.1359 22.4583 71.5866 22.3409C72.0412 22.2197 72.4882 22.1591 72.9276 22.1591C73.2079 22.1591 73.5298 22.1932 73.8935 22.2614C74.2609 22.3258 74.6151 22.4602 74.956 22.6648C75.3007 22.8693 75.5866 23.178 75.8139 23.5909C76.0412 24.0038 76.1548 24.5568 76.1548 25.25V31H74.8139V29.8182H74.7457C74.6548 30.0076 74.5033 30.2102 74.2912 30.4261C74.0791 30.642 73.7969 30.8258 73.4446 30.9773C73.0923 31.1288 72.6624 31.2045 72.1548 31.2045ZM72.3594 30C72.8897 30 73.3366 29.8958 73.7003 29.6875C74.0677 29.4792 74.3442 29.2102 74.5298 28.8807C74.7192 28.5511 74.8139 28.2045 74.8139 27.8409V26.6136C74.7571 26.6818 74.6321 26.7443 74.4389 26.8011C74.2495 26.8542 74.0298 26.9015 73.7798 26.9432C73.5336 26.9811 73.2931 27.0152 73.0582 27.0455C72.8272 27.072 72.6397 27.0947 72.4957 27.1136C72.1473 27.1591 71.8215 27.233 71.5185 27.3352C71.2192 27.4337 70.9768 27.5833 70.7912 27.7841C70.6094 27.9811 70.5185 28.25 70.5185 28.5909C70.5185 29.0568 70.6908 29.4091 71.0355 29.6477C71.384 29.8826 71.8253 30 72.3594 30ZM82.1477 31.1818C81.3295 31.1818 80.625 30.9886 80.0341 30.6023C79.4432 30.2159 78.9886 29.6837 78.6705 29.0057C78.3523 28.3277 78.1932 27.553 78.1932 26.6818C78.1932 25.7955 78.3561 25.0133 78.6818 24.3352C79.0114 23.6534 79.4697 23.1212 80.0568 22.7386C80.6477 22.3523 81.3371 22.1591 82.125 22.1591C82.7386 22.1591 83.2917 22.2727 83.7841 22.5C84.2765 22.7273 84.6799 23.0455 84.9943 23.4545C85.3087 23.8636 85.5038 24.3409 85.5795 24.8864H84.2386C84.1364 24.4886 83.9091 24.1364 83.5568 23.8295C83.2083 23.5189 82.7386 23.3636 82.1477 23.3636C81.625 23.3636 81.1667 23.5 80.7727 23.7727C80.3826 24.0417 80.0777 24.4223 79.858 24.9148C79.642 25.4034 79.5341 25.9773 79.5341 26.6364C79.5341 27.3106 79.6402 27.8977 79.8523 28.3977C80.0682 28.8977 80.3712 29.286 80.7614 29.5625C81.1553 29.839 81.6174 29.9773 82.1477 29.9773C82.4962 29.9773 82.8125 29.9167 83.0966 29.7955C83.3807 29.6742 83.6212 29.5 83.8182 29.2727C84.0152 29.0455 84.1553 28.7727 84.2386 28.4545H85.5795C85.5038 28.9697 85.3163 29.4337 85.017 29.8466C84.7216 30.2557 84.3295 30.5814 83.8409 30.8239C83.3561 31.0625 82.7917 31.1818 82.1477 31.1818ZM91.3352 22.2727V23.4091H86.8125V22.2727H91.3352ZM88.1307 20.1818H89.4716V28.5C89.4716 28.8788 89.5265 29.1629 89.6364 29.3523C89.75 29.5379 89.8939 29.6629 90.0682 29.7273C90.2462 29.7879 90.4337 29.8182 90.6307 29.8182C90.7784 29.8182 90.8996 29.8106 90.9943 29.7955C91.089 29.7765 91.1648 29.7614 91.2216 29.75L91.4943 30.9545C91.4034 30.9886 91.2765 31.0227 91.1136 31.0568C90.9508 31.0947 90.7443 31.1136 90.4943 31.1136C90.1155 31.1136 89.7443 31.0322 89.3807 30.8693C89.0208 30.7064 88.7216 30.4583 88.483 30.125C88.2481 29.7917 88.1307 29.3712 88.1307 28.8636V20.1818ZM103.352 27.4318V22.2727H104.693V31H103.352V29.5227H103.261C103.057 29.9659 102.739 30.3428 102.307 30.6534C101.875 30.9602 101.33 31.1136 100.67 31.1136C100.125 31.1136 99.6402 30.9943 99.2159 30.7557C98.7917 30.5133 98.4583 30.1496 98.2159 29.6648C97.9735 29.1761 97.8523 28.5606 97.8523 27.8182V22.2727H99.1932V27.7273C99.1932 28.3636 99.3712 28.8712 99.7273 29.25C100.087 29.6288 100.545 29.8182 101.102 29.8182C101.436 29.8182 101.775 29.733 102.119 29.5625C102.468 29.392 102.759 29.1307 102.994 28.7784C103.233 28.4261 103.352 27.9773 103.352 27.4318ZM113.331 24.2273L112.126 24.5682C112.051 24.3674 111.939 24.1723 111.791 23.983C111.647 23.7898 111.45 23.6307 111.2 23.5057C110.95 23.3807 110.63 23.3182 110.24 23.3182C109.706 23.3182 109.261 23.4413 108.905 23.6875C108.553 23.9299 108.376 24.2386 108.376 24.6136C108.376 24.947 108.498 25.2102 108.74 25.4034C108.982 25.5966 109.361 25.7576 109.876 25.8864L111.172 26.2045C111.952 26.3939 112.534 26.6837 112.916 27.0739C113.299 27.4602 113.49 27.9583 113.49 28.5682C113.49 29.0682 113.346 29.5152 113.058 29.9091C112.774 30.303 112.376 30.6136 111.865 30.8409C111.354 31.0682 110.759 31.1818 110.081 31.1818C109.191 31.1818 108.454 30.9886 107.871 30.6023C107.287 30.2159 106.918 29.6515 106.763 28.9091L108.036 28.5909C108.157 29.0606 108.386 29.4129 108.723 29.6477C109.064 29.8826 109.509 30 110.058 30C110.683 30 111.179 29.8674 111.547 29.6023C111.918 29.3333 112.104 29.0114 112.104 28.6364C112.104 28.3333 111.998 28.0795 111.786 27.875C111.573 27.6667 111.248 27.5114 110.808 27.4091L109.354 27.0682C108.554 26.8788 107.967 26.5852 107.592 26.1875C107.221 25.786 107.036 25.2841 107.036 24.6818C107.036 24.1894 107.174 23.7538 107.45 23.375C107.731 22.9962 108.111 22.6989 108.592 22.483C109.077 22.267 109.626 22.1591 110.24 22.1591C111.104 22.1591 111.782 22.3485 112.274 22.7273C112.77 23.1061 113.123 23.6061 113.331 24.2273Z" fill="black"/>
</g>
<g filter="url(#filter1_b_239_884)">
<rect x="149" width="50" height="50" rx="8" fill="white"/>
<path d="M178.743 20.7574L178.743 27.8285C178.743 27.9612 178.691 28.0886 178.597 28.1825C178.503 28.2763 178.375 28.3291 178.243 28.3291C178.11 28.3291 177.983 28.2763 177.889 28.1825C177.795 28.0886 177.742 27.9612 177.742 27.8285L177.743 21.9644L170.111 29.5962C170.017 29.69 169.89 29.7427 169.757 29.7427C169.625 29.7427 169.498 29.69 169.404 29.5962C169.31 29.5025 169.257 29.3753 169.257 29.2427C169.257 29.1101 169.31 28.9829 169.404 28.8891L177.036 21.2573L171.172 21.258C171.039 21.258 170.911 21.2053 170.818 21.1114C170.724 21.0175 170.671 20.8902 170.671 20.7574C170.671 20.6246 170.724 20.4973 170.818 20.4034C170.911 20.3095 171.039 20.2568 171.172 20.2568H178.243C178.308 20.2567 178.374 20.2696 178.434 20.2947C178.495 20.3198 178.55 20.3567 178.597 20.4032C178.643 20.4497 178.68 20.5049 178.705 20.5657C178.73 20.6265 178.743 20.6916 178.743 20.7574Z" fill="#EA150D"/>
</g>
<defs>
<filter id="filter0_b_239_884" x="-50" y="-50" width="247" height="150" filterUnits="userSpaceOnUse" color-interpolation-filters="sRGB">
<feFlood flood-opacity="0" result="BackgroundImageFix"/>
<feGaussianBlur in="BackgroundImageFix" stdDeviation="25"/>
<feComposite in2="SourceAlpha" operator="in" result="effect1_backgroundBlur_239_884"/>
<feBlend mode="normal" in="SourceGraphic" in2="effect1_backgroundBlur_239_884" result="shape"/>
</filter>
<filter id="filter1_b_239_884" x="99" y="-50" width="150" height="150" filterUnits="userSpaceOnUse" color-interpolation-filters="sRGB">
<feFlood flood-opacity="0" result="BackgroundImageFix"/>
<feGaussianBlur in="BackgroundImageFix" stdDeviation="25"/>
<feComposite in2="SourceAlpha" operator="in" result="effect1_backgroundBlur_239_884"/>
<feBlend mode="normal" in="SourceGraphic" in2="effect1_backgroundBlur_239_884" result="shape"/>
</filter>
</defs>
</svg>