<svg width="77" height="77" viewBox="0 0 77 77" fill="none" xmlns="http://www.w3.org/2000/svg">
<path id="Vector" d="M8.83946 76.48C6.52947 76.48 4.55125 75.6568 2.90486 74.0105C1.25846 72.3639 0.43666 70.3873 0.43946 68.08V9.28C0.43946 6.97002 1.26266 4.9918 2.90907 3.34541C4.55546 1.69901 6.53225 0.877212 8.83946 0.880012H47.3745C48.4945 0.880012 49.5626 1.09001 50.5791 1.51001C51.5954 1.93001 52.4873 2.52501 53.2545 3.29501L73.6244 23.665C74.3944 24.435 74.9895 25.3282 75.4094 26.3447C75.8295 27.3609 76.0395 28.4278 76.0395 29.5449V68.08C76.0395 70.3901 75.2163 72.3682 73.5699 74.0146C71.9234 75.6609 69.9468 76.4828 67.6395 76.48H8.83946ZM21.4395 59.6799H55.0395C56.2295 59.6799 57.2276 59.2769 58.0341 58.4703C58.8405 57.664 59.2422 56.6672 59.2394 55.48C59.2394 54.2901 58.8364 53.2917 58.0298 52.4854C57.2235 51.6791 56.2267 51.2771 55.0395 51.2799H21.4395C20.2495 51.2799 19.2513 51.6832 18.4449 52.4895C17.6385 53.2961 17.2367 54.2927 17.2395 55.48C17.2395 56.67 17.6427 57.6681 18.4491 58.4747C19.2555 59.281 20.2523 59.6828 21.4395 59.6799ZM21.4395 42.8799H55.0395C56.2295 42.8799 57.2276 42.4768 58.0341 41.6703C58.8405 40.864 59.2422 39.8671 59.2394 38.68C59.2394 37.4901 58.8364 36.4917 58.0298 35.6854C57.2235 34.879 56.2267 34.4773 55.0395 34.4801H21.4395C20.2495 34.4801 19.2513 34.8831 18.4449 35.6897C17.6385 36.496 17.2367 37.4929 17.2395 38.68C17.2395 39.8699 17.6427 40.8683 18.4491 41.6746C19.2555 42.4809 20.2523 42.8827 21.4395 42.8799ZM21.4395 26.0801H42.4394C43.6295 26.0801 44.6277 25.6768 45.434 24.8705C46.2405 24.0639 46.6423 23.0673 46.6395 21.88C46.6395 20.69 46.2362 19.6918 45.4299 18.8854C44.6236 18.079 43.6267 17.6772 42.4394 17.68H21.4395C20.2495 17.68 19.2513 18.0832 18.4449 18.8896C17.6385 19.696 17.2367 20.6928 17.2395 21.88C17.2395 23.0699 17.6427 24.0682 18.4491 24.8746C19.2555 25.6809 20.2523 26.0829 21.4395 26.0801Z" fill="white"/>
</svg>
