<svg width="12" height="12" viewBox="0 0 12 12" fill="none" xmlns="http://www.w3.org/2000/svg">
<g clip-path="url(#clip0_266_2894)">
<path d="M3.29 4.77401L2.76 4.24351L5.6485 1.35401C5.69478 1.30743 5.74982 1.27046 5.81044 1.24524C5.87107 1.22002 5.93608 1.20703 6.00175 1.20703C6.06741 1.20703 6.13242 1.22002 6.19305 1.24524C6.25367 1.27046 6.30871 1.30743 6.355 1.35401L9.245 4.24351L8.715 4.77351L6.0025 2.06151L3.29 4.77401Z" fill="black"/>
</g>
<g clip-path="url(#clip1_266_2894)">
<path d="M8.71 7.22599L9.24 7.75649L6.3515 10.646C6.30522 10.6926 6.25018 10.7295 6.18956 10.7548C6.12893 10.78 6.06392 10.793 5.99825 10.793C5.93259 10.793 5.86758 10.78 5.80695 10.7548C5.74633 10.7295 5.69129 10.6926 5.645 10.646L2.75501 7.75649L3.28501 7.22649L5.9975 9.93849L8.71 7.22599Z" fill="black"/>
</g>
<defs>
<clipPath id="clip0_266_2894">
<rect width="6" height="12" fill="white" transform="translate(0 6) rotate(-90)"/>
</clipPath>
<clipPath id="clip1_266_2894">
<rect width="6" height="12" fill="white" transform="translate(12 6) rotate(90)"/>
</clipPath>
</defs>
</svg>
