<svg width="111" height="111" viewBox="0 0 111 111" fill="none" xmlns="http://www.w3.org/2000/svg">
<circle cx="55.2885" cy="55.2885" r="55.2885" fill="#B21F18"/>
<g clip-path="url(#clip0_1230_982)" transform="translate(26 26)" >
<path d="M28.3648 0.432617C32.8108 0.432617 37.0431 1.45387 40.8383 3.27549C41.4344 3.54387 42.0329 3.86449 42.6267 4.18749L40.0237 6.49124L36.1215 2.47274L29.3955 8.36987L25.4364 4.13287L13.0698 15.1244L20.988 23.7575L17.8958 26.4365L25.7095 35.0696L22.6173 37.7486L33.7893 50.0274L40.4037 44.021L46.1536 50.4572C45.0136 51.3146 43.7667 52.1744 42.4129 52.9249C38.1375 55.3179 33.319 56.5724 28.4194 56.5681C12.7444 56.5657 0.000174949 43.9664 0.000174949 28.4766C-0.05445 13.0866 12.6898 0.432617 28.3648 0.432617ZM23.1564 26.7619L29.937 20.7555L36.0123 27.4577L29.2317 33.4641L23.1564 26.7619ZM27.9848 38.3424L34.7108 32.2861L40.8383 38.986L34.0577 44.9924L27.9848 38.3424ZM18.3352 15.3429L25.1134 9.33649L31.1863 16.0387L24.4081 22.0427L18.3352 15.3429ZM30.7517 12.1247L35.7962 7.62174L40.3538 12.6069L35.3093 17.1645L30.7517 12.1247ZM39.7577 32.7659L44.7998 28.2629L49.3551 33.3002L44.3106 37.808L39.7577 32.7659ZM44.2037 42.9L49.2482 38.3946L53.8011 43.3821L48.7589 47.9374L44.2037 42.9ZM46.2652 19.7366L49.6258 16.7346L52.6634 20.0596L49.3004 23.0616L46.2652 19.7366ZM41.9261 9.81862L45.2891 6.76437L48.3291 10.1416L44.9613 13.1436L41.9261 9.81862ZM50.5473 29.657L53.9103 26.655L57.0026 29.98L53.5873 32.982L50.5473 29.657ZM35.4185 22.2042L40.4631 17.7012L45.0183 22.6864L39.9738 27.1917L35.4185 22.2042Z" fill="white"/>
</g>
<defs>
<clipPath id="clip0_1230_982">
<rect width="57" height="57" fill="white"/>
</clipPath>
</defs>
</svg>
