<svg width="64" height="47" viewBox="0 0 111 111" fill="none" xmlns="http://www.w3.org/2000/svg">
<circle cx="55.2885" cy="55.2885" r="55.2885" fill="#B21F18"/>
<path d="M41.666 71C37.2216 71 33.4438 69.4444 30.3327 66.3333C27.2216 63.2222 25.666 59.4444 25.666 55C25.666 50.5556 27.2216 46.7778 30.3327 43.6667C33.4438 40.5556 37.2216 39 41.666 39C45.266 39 48.4109 40.0107 51.1007 42.032C53.7905 44.0533 55.6678 46.5982 56.7327 49.6667H84.3327V60.3333H78.9994V71H68.3327V60.3333H56.7327C55.666 63.4 53.7878 65.9449 51.098 67.968C48.4082 69.9911 45.2642 71.0018 41.666 71ZM41.666 60.3333C43.1327 60.3333 44.3887 59.8107 45.434 58.7653C46.4793 57.72 47.0011 56.4649 46.9993 55C46.9993 53.5333 46.4767 52.2773 45.4313 51.232C44.386 50.1867 43.1309 49.6649 41.666 49.6667C40.1993 49.6667 38.9433 50.1893 37.898 51.2347C36.8527 52.28 36.3309 53.5351 36.3327 55C36.3327 56.4667 36.8553 57.7227 37.9007 58.768C38.946 59.8133 40.2011 60.3351 41.666 60.3333Z" fill="white"/>
</svg>
