<svg width="120" height="48" viewBox="0 0 120 48" fill="none" xmlns="http://www.w3.org/2000/svg">
<path d="M6.75072 15.1623C5.59056 15.1623 4.4698 15.0044 3.38804 14.689C2.30334 14.3761 1.4329 13.9686 0.775879 13.466L1.92892 10.911C2.55785 11.3717 3.30544 11.7416 4.17211 12.0209C5.03877 12.3003 5.90502 12.4398 6.77169 12.4398C7.73605 12.4398 8.44884 12.2961 8.91005 12.0084C9.37127 11.7236 9.60188 11.3437 9.60188 10.8691C9.60188 10.5202 9.46645 10.2295 9.19517 9.9979C8.92137 9.76879 8.57169 9.5845 8.14695 9.44502C7.71928 9.30554 7.14192 9.15183 6.41529 8.98429C5.29705 8.71916 4.38175 8.45361 3.66896 8.18848C2.95617 7.92335 2.34527 7.49738 1.83668 6.91099C1.32515 6.3246 1.06938 5.54261 1.06938 4.56544C1.06938 3.71392 1.29999 2.94157 1.7612 2.24921C2.22242 1.55937 2.91718 1.01235 3.84506 0.607328C4.77588 0.202302 5.91215 0 7.25387 0C8.19014 0 9.10586 0.111832 10.0002 0.335078C10.8945 0.558324 11.6774 0.87958 12.3482 1.29843L11.3 3.87434C9.94444 3.10659 8.58846 2.72251 7.2329 2.72251C6.28238 2.72251 5.58091 2.87623 5.12808 3.18324C4.67232 3.49026 4.44464 3.89529 4.44464 4.3979C4.44464 4.90052 4.70754 5.2733 5.2329 5.51623C5.75575 5.76209 6.55492 6.00335 7.63123 6.24083C8.74947 6.50596 9.66477 6.77151 10.3776 7.03665C11.0903 7.30178 11.7025 7.72062 12.214 8.29319C12.7226 8.86576 12.9771 9.64062 12.9771 10.6178C12.9771 11.4555 12.7436 12.2191 12.2769 12.9089C11.8073 13.6012 11.1042 14.1499 10.1679 14.555C9.23165 14.96 8.09244 15.1623 6.75072 15.1623ZM34.235 0.251308H37.4845L32.6836 14.911H29.0358L25.8073 4.98429L22.474 14.911H18.8472L14.0254 0.251308H17.5474L20.8597 10.555L24.3189 0.251308H27.4635L30.8178 10.6387L34.235 0.251308ZM39.3713 14.911V0.251308H42.7675V14.911H39.3713ZM57.3377 2.97382H49.6438V6.84816H56.4363V9.57068H49.6438V14.911H46.2476V0.251308H57.3377V2.97382ZM62.7885 14.911V3.0157H58.0925V0.251308H70.8807V3.0157H66.1847V14.911H62.7885Z" fill="white"/>
<path d="M8.28104 16.67C9.58083 16.67 10.71 16.8866 11.6689 17.3192C12.6249 17.7519 13.3615 18.3663 13.8785 19.1622C14.3955 19.958 14.6542 20.9004 14.6542 21.9894C14.6542 23.0646 14.3955 24.0028 13.8785 24.804C13.3615 25.6082 12.6249 26.2227 11.6689 26.647C10.71 27.0742 9.58083 27.2878 8.28104 27.2878H5.32506V31.3297H1.92883V16.67H8.28104ZM8.09236 24.5234C9.11248 24.5234 9.88816 24.3044 10.4194 23.8658C10.9506 23.4248 11.216 22.799 11.216 21.9894C11.216 21.1655 10.9506 20.533 10.4194 20.092C9.88816 19.6535 9.11248 19.4344 8.09236 19.4344H5.32506V24.5234H8.09236ZM30.063 31.3297H26.4152L23.585 27.2459H23.4173H20.4613V31.3297H17.0651V16.67H23.4173C24.7171 16.67 25.8462 16.8866 26.8052 17.3192C27.7611 17.7519 28.4978 18.3663 29.0148 19.1622C29.5318 19.958 29.7905 20.9004 29.7905 21.9894C29.7905 23.0784 29.5276 24.0166 29.0022 24.804C28.4794 25.5944 27.736 26.1988 26.7716 26.6176L30.063 31.3297ZM26.3523 21.9894C26.3523 21.1655 26.0869 20.533 25.5557 20.092C25.0244 19.6535 24.2488 19.4344 23.2286 19.4344H20.4613V24.5444H23.2286C24.2488 24.5444 25.0244 24.3211 25.5557 23.8742C26.0869 23.4273 26.3523 22.799 26.3523 21.9894ZM39.5808 31.581C38.0576 31.581 36.6848 31.253 35.4634 30.5967C34.2391 29.9404 33.2802 29.0373 32.5871 27.8868C31.8966 26.7337 31.5515 25.4378 31.5515 23.9998C31.5515 22.5619 31.8966 21.266 32.5871 20.1129C33.2802 18.9624 34.2391 18.0593 35.4634 17.403C36.6848 16.7467 38.0576 16.4187 39.5808 16.4187C41.1041 16.4187 42.4739 16.7467 43.6899 17.403C44.9058 18.0593 45.863 18.9624 46.562 20.1129C47.2609 21.266 47.6102 22.5619 47.6102 23.9998C47.6102 25.4378 47.2609 26.7337 46.562 27.8868C45.863 29.0373 44.9058 29.9404 43.6899 30.5967C42.4739 31.253 41.1041 31.581 39.5808 31.581ZM39.5808 28.6909C40.4475 28.6909 41.2299 28.4912 41.9288 28.092C42.6278 27.6953 43.1754 27.1412 43.5725 26.4292C43.972 25.7171 44.172 24.9075 44.172 23.9998C44.172 23.0922 43.972 22.2826 43.5725 21.5705C43.1754 20.8585 42.6278 20.3027 41.9288 19.9035C41.2299 19.5069 40.4475 19.3088 39.5808 19.3088C38.7142 19.3088 37.9318 19.5069 37.2328 19.9035C36.5339 20.3027 35.9846 20.8585 35.585 21.5705C35.188 22.2826 34.9896 23.0922 34.9896 23.9998C34.9896 24.9075 35.188 25.7171 35.585 26.4292C35.9846 27.1412 36.5339 27.6953 37.2328 28.092C37.9318 28.4912 38.7142 28.6909 39.5808 28.6909ZM56.5201 16.67C57.8198 16.67 58.949 16.8866 59.9079 17.3192C60.8639 17.7519 61.6006 18.3663 62.1175 19.1622C62.6345 19.958 62.8932 20.9004 62.8932 21.9894C62.8932 23.0646 62.6345 24.0028 62.1175 24.804C61.6006 25.6082 60.8639 26.2227 59.9079 26.647C58.949 27.0742 57.8198 27.2878 56.5201 27.2878H53.5641V31.3297H50.1678V16.67H56.5201ZM56.3314 24.5234C57.3515 24.5234 58.1272 24.3044 58.6584 23.8658C59.1897 23.4248 59.4551 22.799 59.4551 21.9894C59.4551 21.1655 59.1897 20.533 58.6584 20.092C58.1272 19.6535 57.3515 19.4344 56.3314 19.4344H53.5641V24.5234H56.3314ZM68.6794 28.6072H76.6668V31.3297H65.3041V16.67H76.3943V19.3925H68.6794V22.5758H75.4928V25.2145H68.6794V28.6072ZM92.3691 31.3297H88.7213L85.8911 27.2459H85.7234H82.7674V31.3297H79.3712V16.67H85.7234C87.0232 16.67 88.1523 16.8866 89.1113 17.3192C90.0672 17.7519 90.8039 18.3663 91.3209 19.1622C91.8379 19.958 92.0966 20.9004 92.0966 21.9894C92.0966 23.0784 91.8354 24.0166 91.3125 24.804C90.7871 25.5944 90.0421 26.1988 89.0777 26.6176L92.3691 31.3297ZM88.6584 21.9894C88.6584 21.1655 88.393 20.533 87.8618 20.092C87.3305 19.6535 86.5549 19.4344 85.5347 19.4344H82.7674V24.5444H85.5347C86.5549 24.5444 87.3305 24.3211 87.8618 23.8742C88.393 23.4273 88.6584 22.799 88.6584 21.9894ZM97.6102 31.3297V19.4344H92.9142V16.67H105.702V19.4344H101.006V31.3297H97.6102ZM120 16.67L114.298 26.136V31.3297H110.902V26.0941L105.22 16.67H108.826L112.746 23.1831L116.667 16.67H120Z" fill="white"/>
<path d="M12.8931 47.7486L11.5933 44.6073H4.77988L3.48009 47.7486H0L6.54088 33.089H9.89518L16.457 47.7486H12.8931ZM5.87002 42.0314H10.5241L8.19707 36.4188L5.87002 42.0314ZM24.1929 47.9999C22.0964 47.9999 20.4654 47.4207 19.2998 46.2617C18.1312 45.1028 17.5472 43.4483 17.5472 41.2984V33.089H20.9434V41.1727C20.9434 43.7976 22.0336 45.1099 24.2138 45.1099C25.2759 45.1099 26.0868 44.7916 26.6457 44.1549C27.2046 43.5212 27.4843 42.5269 27.4843 41.1727V33.089H30.8386V41.2984C30.8386 43.4483 30.2558 45.1028 29.0902 46.2617C27.9216 47.4207 26.2893 47.9999 24.1929 47.9999ZM41.2159 47.9999C39.7203 47.9999 38.369 47.6745 37.1614 47.024C35.951 46.3761 35.0008 45.4755 34.3103 44.3225C33.6172 43.1719 33.2705 41.8709 33.2705 40.4188C33.2705 38.9666 33.6172 37.664 34.3103 36.5109C35.0008 35.3604 35.951 34.4615 37.1614 33.8136C38.369 33.1631 39.7275 32.8376 41.2369 32.8376C42.5086 32.8376 43.6591 33.0609 44.6876 33.5078C45.7136 33.9547 46.5757 34.5968 47.2747 35.4345L45.0944 37.445C44.1019 36.3003 42.8721 35.7277 41.4046 35.7277C40.496 35.7277 39.6855 35.9258 38.9728 36.3225C38.26 36.7216 37.7053 37.2774 37.3082 37.9895C36.9086 38.7015 36.7086 39.5112 36.7086 40.4188C36.7086 41.3264 36.9086 42.1361 37.3082 42.8481C37.7053 43.5602 38.26 44.1143 38.9728 44.5109C39.6855 44.9101 40.496 45.1099 41.4046 45.1099C42.8721 45.1099 44.1019 44.5306 45.0944 43.3717L47.2747 45.3821C46.5757 46.2337 45.7094 46.8829 44.6751 47.3298C43.6407 47.7767 42.4876 47.9999 41.2159 47.9999ZM52.4528 47.7486V35.8534H47.7568V33.089H60.5451V35.8534H55.8491V47.7486H52.4528ZM62.369 47.7486V33.089H65.7652V47.7486H62.369ZM76.3522 47.9999C74.8289 47.9999 73.4562 47.672 72.2348 47.0156C71.0105 46.3593 70.0533 45.4563 69.3627 44.3057C68.6696 43.1526 68.3229 41.8567 68.3229 40.4188C68.3229 38.9809 68.6696 37.685 69.3627 36.5319C70.0533 35.3813 71.0105 34.4783 72.2348 33.8219C73.4562 33.1656 74.8289 32.8376 76.3522 32.8376C77.8755 32.8376 79.2453 33.1656 80.4612 33.8219C81.6772 34.4783 82.6344 35.3813 83.3334 36.5319C84.0323 37.685 84.3816 38.9809 84.3816 40.4188C84.3816 41.8567 84.0323 43.1526 83.3334 44.3057C82.6344 45.4563 81.6772 46.3593 80.4612 47.0156C79.2453 47.672 77.8755 47.9999 76.3522 47.9999ZM76.3522 45.1099C77.2189 45.1099 78.0013 44.9101 78.7002 44.5109C79.3992 44.1143 79.9484 43.5602 80.348 42.8481C80.7451 42.1361 80.9434 41.3264 80.9434 40.4188C80.9434 39.5112 80.7451 38.7015 80.348 37.9895C79.9484 37.2774 79.3992 36.7216 78.7002 36.3225C78.0013 35.9258 77.2189 35.7277 76.3522 35.7277C75.4856 35.7277 74.7032 35.9258 74.0042 36.3225C73.3053 36.7216 72.7577 37.2774 72.3606 37.9895C71.961 38.7015 71.761 39.5112 71.761 40.4188C71.761 41.3264 71.961 42.1361 72.3606 42.8481C72.7577 43.5602 73.3053 44.1143 74.0042 44.5109C74.7032 44.9101 75.4856 45.1099 76.3522 45.1099ZM97.0441 33.089H100.398V47.7486H97.6101L90.2935 38.8481V47.7486H86.9392V33.089H89.7485L97.0441 41.9895V33.089ZM108.7 47.9999C107.54 47.9999 106.419 47.842 105.338 47.5266C104.253 47.2138 103.382 46.8062 102.725 46.3036L103.878 43.7486C104.507 44.2094 105.255 44.5792 106.122 44.8586C106.988 45.138 107.855 45.2774 108.721 45.2774C109.686 45.2774 110.398 45.1338 110.86 44.846C111.321 44.5612 111.551 44.1813 111.551 43.7068C111.551 43.3579 111.416 43.0672 111.145 42.8355C110.871 42.6064 110.521 42.4221 110.096 42.2827C109.669 42.1432 109.091 41.9895 108.365 41.8219C107.247 41.5568 106.331 41.2913 105.618 41.0261C104.906 40.761 104.295 40.335 103.786 39.7486C103.275 39.1623 103.019 38.3803 103.019 37.4031C103.019 36.5516 103.25 35.7792 103.711 35.0869C104.172 34.397 104.868 33.85 105.799 33.445C106.727 33.0399 107.862 32.8376 109.203 32.8376C110.14 32.8376 111.055 32.9495 111.95 33.1727C112.844 33.396 113.627 33.7172 114.298 34.1361L113.25 36.712C111.894 35.9442 110.538 35.5602 109.182 35.5602C108.232 35.5602 107.53 35.7139 107.078 36.0209C106.622 36.3279 106.394 36.7329 106.394 37.2355C106.394 37.7382 106.657 38.1109 107.182 38.3539C107.705 38.5997 108.504 38.841 109.581 39.0785C110.699 39.3436 111.614 39.6092 112.327 39.8743C113.04 40.1394 113.652 40.5583 114.164 41.1308C114.672 41.7034 114.927 42.4783 114.927 43.4554C114.927 44.2931 114.693 45.0567 114.226 45.7465C113.757 46.4389 113.054 46.9876 112.117 47.3926C111.181 47.7976 110.042 47.9999 108.7 47.9999Z" fill="white"/>
</svg>