<svg width="100" height="40" viewBox="0 0 100 40" fill="none" xmlns="http://www.w3.org/2000/svg">
<path d="M5.62552 12.6352C4.65871 12.6352 3.72475 12.5037 2.82328 12.2408C1.91937 11.9801 1.194 11.6405 0.646484 11.2216L1.60735 9.09249C2.13146 9.47643 2.75445 9.78464 3.47667 10.0174C4.1989 10.2503 4.92077 10.3665 5.64299 10.3665C6.44663 10.3665 7.04062 10.2468 7.42496 10.007C7.80931 9.76963 8.00148 9.45305 8.00148 9.05759C8.00148 8.76684 7.88863 8.5246 7.66256 8.33158C7.4344 8.14066 7.14299 7.98708 6.78904 7.87085C6.43265 7.75462 5.95152 7.62652 5.346 7.48691C4.41413 7.26596 3.65138 7.04467 3.05739 6.82373C2.4634 6.60279 1.95431 6.24781 1.53048 5.75916C1.10421 5.2705 0.891069 4.61884 0.891069 3.80453C0.891069 3.09494 1.08324 2.45131 1.46759 1.87434C1.85194 1.29948 2.4309 0.843629 3.20414 0.506107C3.97982 0.168585 4.92671 0 6.04481 0C6.82503 0 7.58814 0.0931934 8.33342 0.279232C9.0787 0.46527 9.73104 0.732983 10.2901 1.08202L9.41658 3.22862C8.28695 2.58883 7.15697 2.26876 6.02734 2.26876C5.23523 2.26876 4.65068 2.39686 4.27332 2.6527C3.89352 2.90855 3.70379 3.24607 3.70379 3.66492C3.70379 4.08377 3.92287 4.39441 4.36067 4.59686C4.79638 4.80174 5.46235 5.00279 6.35927 5.20069C7.29114 5.42164 8.05389 5.64293 8.64788 5.86387C9.24187 6.08481 9.75201 6.43385 10.1783 6.91099C10.6021 7.38813 10.8142 8.03385 10.8142 8.84816C10.8142 9.54624 10.6196 10.1825 10.2307 10.7574C9.83936 11.3344 9.25341 11.7916 8.47318 12.1291C7.69296 12.4667 6.74362 12.6352 5.62552 12.6352ZM28.5291 0.209423H31.237L27.2363 12.4258H24.1965L21.506 4.15357L18.7283 12.4258H15.7059L11.6877 0.209423H14.6227L17.383 8.79581L20.2656 0.209423H22.8862L25.6814 8.86561L28.5291 0.209423ZM32.8093 12.4258V0.209423H35.6395V12.4258H32.8093ZM47.7814 2.47818H41.3698V5.7068H47.0301V7.97556H41.3698V12.4258H38.5396V0.209423H47.7814V2.47818ZM52.3237 12.4258V2.51309H48.4103V0.209423H59.0672V2.51309H55.1538V12.4258H52.3237Z" fill="#0F2848"/>
<path d="M6.90092 13.8916C7.98408 13.8916 8.92503 14.072 9.72413 14.4326C10.5208 14.7931 11.1347 15.3052 11.5655 15.9683C11.9963 16.6315 12.2119 17.4169 12.2119 18.3244C12.2119 19.2203 11.9963 20.0022 11.5655 20.6699C11.1347 21.3401 10.5208 21.8521 9.72413 22.2057C8.92503 22.5617 7.98408 22.7397 6.90092 22.7397H4.43761V26.108H1.60742V13.8916H6.90092ZM6.74369 20.4361C7.5938 20.4361 8.2402 20.2535 8.6829 19.8881C9.12559 19.5205 9.34677 18.9991 9.34677 18.3244C9.34677 17.6378 9.12559 17.1107 8.6829 16.7432C8.2402 16.3778 7.5938 16.1952 6.74369 16.1952H4.43761V20.4361H6.74369ZM25.0526 26.108H22.0127L19.6542 22.7048H19.5145H17.0512V26.108H14.221V13.8916H19.5145C20.5976 13.8916 21.5386 14.072 22.3377 14.4326C23.1343 14.7931 23.7482 15.3052 24.1791 15.9683C24.6099 16.6315 24.8255 17.4169 24.8255 18.3244C24.8255 19.2319 24.6064 20.0137 24.1686 20.6699C23.7329 21.3285 23.1134 21.8322 22.3097 22.1813L25.0526 26.108ZM21.9603 18.3244C21.9603 17.6378 21.7392 17.1107 21.2965 16.7432C20.8538 16.3778 20.2074 16.1952 19.3573 16.1952H17.0512V20.4535H19.3573C20.2074 20.4535 20.8538 20.2675 21.2965 19.895C21.7392 19.5226 21.9603 18.9991 21.9603 18.3244ZM32.9841 26.3174C31.7147 26.3174 30.5707 26.0441 29.5529 25.4971C28.5327 24.9502 27.7336 24.1977 27.156 23.2388C26.5805 22.2779 26.293 21.198 26.293 19.9998C26.293 18.8015 26.5805 17.7216 27.156 16.7607C27.7336 15.8018 28.5327 15.0493 29.5529 14.5024C30.5707 13.9554 31.7147 13.6821 32.9841 13.6821C34.2535 13.6821 35.395 13.9554 36.4083 14.5024C37.4216 15.0493 38.2192 15.8018 38.8017 16.7607C39.3842 17.7216 39.6752 18.8015 39.6752 19.9998C39.6752 21.198 39.3842 22.2779 38.8017 23.2388C38.2192 24.1977 37.4216 24.9502 36.4083 25.4971C35.395 26.0441 34.2535 26.3174 32.9841 26.3174ZM32.9841 23.909C33.7063 23.909 34.3583 23.7425 34.9408 23.4099C35.5232 23.0793 35.9795 22.6176 36.3104 22.0242C36.6434 21.4308 36.8101 20.7561 36.8101 19.9998C36.8101 19.2434 36.6434 18.5687 36.3104 17.9753C35.9795 17.382 35.5232 16.9188 34.9408 16.5861C34.3583 16.2556 33.7063 16.0905 32.9841 16.0905C32.2619 16.0905 31.6099 16.2556 31.0274 16.5861C30.445 16.9188 29.9872 17.382 29.6543 17.9753C29.3234 18.5687 29.1581 19.2434 29.1581 19.9998C29.1581 20.7561 29.3234 21.4308 29.6543 22.0242C29.9872 22.6176 30.445 23.0793 31.0274 23.4099C31.6099 23.7425 32.2619 23.909 32.9841 23.909ZM47.1001 13.8916C48.1833 13.8916 49.1242 14.072 49.9233 14.4326C50.7199 14.7931 51.3339 15.3052 51.7647 15.9683C52.1955 16.6315 52.4111 17.4169 52.4111 18.3244C52.4111 19.2203 52.1955 20.0022 51.7647 20.6699C51.3339 21.3401 50.7199 21.8521 49.9233 22.2057C49.1242 22.5617 48.1833 22.7397 47.1001 22.7397H44.6368V26.108H41.8066V13.8916H47.1001ZM46.9429 20.4361C47.793 20.4361 48.4394 20.2535 48.8821 19.8881C49.3248 19.5205 49.5459 18.9991 49.5459 18.3244C49.5459 17.6378 49.3248 17.1107 48.8821 16.7432C48.4394 16.3778 47.793 16.1952 46.9429 16.1952H44.6368V20.4361H46.9429ZM57.2329 23.8392H63.8891V26.108H54.4202V13.8916H63.662V16.1603H57.2329V18.813H62.9107V21.012H57.2329V23.8392ZM76.9743 26.108H73.9345L71.576 22.7048H71.4362H68.9729V26.108H66.1427V13.8916H71.4362C72.5194 13.8916 73.4604 14.072 74.2594 14.4326C75.0561 14.7931 75.67 15.3052 76.1008 15.9683C76.5316 16.6315 76.7472 17.4169 76.7472 18.3244C76.7472 19.2319 76.5295 20.0137 76.0938 20.6699C75.656 21.3285 75.0351 21.8322 74.2315 22.1813L76.9743 26.108ZM73.8821 18.3244C73.8821 17.6378 73.6609 17.1107 73.2182 16.7432C72.7755 16.3778 72.1291 16.1952 71.279 16.1952H68.9729V20.4535H71.279C72.1291 20.4535 72.7755 20.2675 73.2182 19.895C73.6609 19.5226 73.8821 18.9991 73.8821 18.3244ZM81.3419 26.108V16.1952H77.4286V13.8916H88.0854V16.1952H84.1721V26.108H81.3419ZM100 13.8916L95.2483 21.7799V26.108H92.4181V21.745L87.6836 13.8916H90.6885L93.9555 19.3191L97.2224 13.8916H100Z" fill="#0F2848"/>
<path d="M10.7442 39.7906L9.66108 37.1728H3.98323L2.90007 39.7906H0L5.45074 27.5742H8.24599L13.7142 39.7906H10.7442ZM4.89169 35.0262H8.77009L6.83089 30.349L4.89169 35.0262ZM20.1607 40C18.4137 40 17.0545 39.5173 16.0832 38.5515C15.1094 37.5857 14.6226 36.207 14.6226 34.4154V27.5742H17.4528V34.3106C17.4528 36.4981 18.3613 37.5916 20.1782 37.5916C21.0632 37.5916 21.739 37.3263 22.2048 36.7958C22.6705 36.2677 22.9036 35.4391 22.9036 34.3106V27.5742H25.6988V34.4154C25.6988 36.207 25.2131 37.5857 24.2418 38.5515C23.268 39.5173 21.9078 40 20.1607 40ZM34.3466 40C33.1003 40 31.9742 39.7288 30.9679 39.1867C29.9591 38.6468 29.1674 37.8963 28.5919 36.9354C28.0143 35.9766 27.7254 34.8925 27.7254 33.6824C27.7254 32.4722 28.0143 31.3867 28.5919 30.4258C29.1674 29.467 29.9591 28.718 30.9679 28.178C31.9742 27.6359 33.1062 27.3647 34.3641 27.3647C35.4238 27.3647 36.3826 27.5508 37.2397 27.9232C38.0947 28.2956 38.8131 28.8307 39.3955 29.5288L37.5786 31.2042C36.7516 30.2503 35.7268 29.7731 34.5039 29.7731C33.7467 29.7731 33.0713 29.9382 32.4773 30.2688C31.8833 30.6014 31.421 31.0646 31.0902 31.6579C30.7572 32.2513 30.5905 32.926 30.5905 33.6824C30.5905 34.4387 30.7572 35.1134 31.0902 35.7068C31.421 36.3002 31.8833 36.7619 32.4773 37.0925C33.0713 37.4251 33.7467 37.5916 34.5039 37.5916C35.7268 37.5916 36.7516 37.1089 37.5786 36.1431L39.3955 37.8185C38.8131 38.5281 38.0912 39.0691 37.2292 39.4415C36.3672 39.814 35.4064 40 34.3466 40ZM43.7107 39.7906V29.8778H39.7974V27.5742H50.4542V29.8778H46.5409V39.7906H43.7107ZM51.9742 39.7906V27.5742H54.8043V39.7906H51.9742ZM63.6269 40C62.3575 40 61.2135 39.7267 60.1957 39.1797C59.1754 38.6328 58.3777 37.8803 57.8023 36.9215C57.2247 35.9606 56.9357 34.8806 56.9357 33.6824C56.9357 32.4841 57.2247 31.4042 57.8023 30.4433C58.3777 29.4845 59.1754 28.7319 60.1957 28.185C61.2135 27.638 62.3575 27.3647 63.6269 27.3647C64.8962 27.3647 66.0378 27.638 67.051 28.185C68.0643 28.7319 68.862 29.4845 69.4445 30.4433C70.0269 31.4042 70.318 32.4841 70.318 33.6824C70.318 34.8806 70.0269 35.9606 69.4445 36.9215C68.862 37.8803 68.0643 38.6328 67.051 39.1797C66.0378 39.7267 64.8962 40 63.6269 40ZM63.6269 37.5916C64.3491 37.5916 65.0011 37.4251 65.5835 37.0925C66.166 36.7619 66.6237 36.3002 66.9567 35.7068C67.2876 35.1134 67.4529 34.4387 67.4529 33.6824C67.4529 32.926 67.2876 32.2513 66.9567 31.6579C66.6237 31.0646 66.166 30.6014 65.5835 30.2688C65.0011 29.9382 64.3491 29.7731 63.6269 29.7731C62.9046 29.7731 62.2526 29.9382 61.6702 30.2688C61.0877 30.6014 60.6314 31.0646 60.3005 31.6579C59.9675 32.2513 59.8009 32.926 59.8009 33.6824C59.8009 34.4387 59.9675 35.1134 60.3005 35.7068C60.6314 36.3002 61.0877 36.7619 61.6702 37.0925C62.2526 37.4251 62.9046 37.5916 63.6269 37.5916ZM80.87 27.5742H83.6653V39.7906H81.3417L75.2446 32.3735V39.7906H72.4494V27.5742H74.7904L80.87 34.9913V27.5742ZM90.5835 40C89.6167 40 88.6828 39.8684 87.7813 39.6056C86.8774 39.3448 86.152 39.0052 85.6045 38.5864L86.5654 36.4572C87.0895 36.8412 87.7125 37.1494 88.4347 37.3822C89.1569 37.615 89.8788 37.7312 90.601 37.7312C91.4046 37.7312 91.9986 37.6115 92.383 37.3717C92.7673 37.1344 92.9595 36.8178 92.9595 36.4223C92.9595 36.1316 92.8466 35.8893 92.6206 35.6963C92.3924 35.5054 92.101 35.3518 91.7471 35.2356C91.3907 35.1194 90.9095 34.9913 90.304 34.8517C89.3722 34.6307 88.6094 34.4094 88.0154 34.1885C87.4214 33.9675 86.9123 33.6126 86.4885 33.1239C86.0622 32.6352 85.8491 31.9836 85.8491 31.1693C85.8491 30.4597 86.0413 29.8161 86.4256 29.2391C86.81 28.6642 87.39 28.2084 88.1656 27.8709C88.9389 27.5333 89.8847 27.3647 91.0028 27.3647C91.7831 27.3647 92.5462 27.4579 93.2914 27.644C94.0367 27.83 94.6891 28.0977 95.2481 28.4468L94.3746 30.5934C93.245 29.9536 92.115 29.6335 90.9854 29.6335C90.1933 29.6335 89.6087 29.7616 89.2313 30.0174C88.8515 30.2733 88.6618 30.6108 88.6618 31.0297C88.6618 31.4485 88.8809 31.7592 89.3187 31.9616C89.7544 32.1665 90.4204 32.3675 91.3173 32.5654C92.2492 32.7864 93.0119 33.0077 93.6059 33.2286C94.1999 33.4496 94.71 33.7986 95.1363 34.2757C95.5601 34.7529 95.7722 35.3986 95.7722 36.2129C95.7722 36.911 95.5776 37.5473 95.1887 38.1222C94.7974 38.6991 94.2114 39.1564 93.4312 39.4939C92.651 39.8314 91.7016 40 90.5835 40Z" fill="#0F2848"/>
</svg>
