<svg xmlns="http://www.w3.org/2000/svg" width="38" height="38" viewBox="0 0 38 38" fill="none">
  <path d="M21.0699 0.582031V3.12757C23.5876 3.12757 25.9463 3.76395 28.1461 5.03672C30.2398 6.28297 31.9094 7.95348 33.155 10.0482C34.4272 12.2491 35.0632 14.609 35.0632 17.128H37.6075C37.6075 14.1317 36.8521 11.3475 35.3415 8.77548C33.8839 6.28297 31.9094 4.30753 29.4182 2.84915C26.8474 1.33774 24.0647 0.582031 21.0699 0.582031ZM7.91137 4.40034C7.1958 4.40034 6.57299 4.62572 6.04294 5.07649L1.94829 9.25277L2.06756 9.17322C1.40499 9.73005 0.9677 10.4195 0.75568 11.2415C0.570162 12.0635 0.623167 12.8589 0.914695 13.6279C1.65677 15.6962 2.65061 17.8174 3.89623 19.9917C5.6454 22.9881 7.72585 25.6794 10.1376 28.0659C14.0069 31.9637 18.8172 35.0396 24.5682 37.2934H24.608C25.3765 37.5586 26.1451 37.6116 26.9137 37.4525C27.7088 37.2934 28.4111 36.9487 29.0206 36.4184L33.0358 32.4012C33.5658 31.8709 33.8308 31.2213 33.8308 30.4523C33.8308 29.6568 33.5658 28.9939 33.0358 28.4636L27.828 23.2134C27.298 22.6831 26.6354 22.418 25.8403 22.418C25.0453 22.418 24.3827 22.6831 23.8526 23.2134L21.3482 25.759C19.334 24.8044 17.5848 23.6244 16.1006 22.2191C14.6165 20.7872 13.4371 19.0504 12.5626 17.0087L15.1068 14.4632C15.6634 13.8798 15.9416 13.1904 15.9416 12.3949C15.9416 11.5729 15.6236 10.91 14.9875 10.4062L15.1068 10.5255L9.77979 5.07649C9.24974 4.62572 8.62693 4.40034 7.91137 4.40034ZM21.0699 5.6731V8.21864C22.6865 8.21864 24.1707 8.61638 25.5223 9.41186C26.9004 10.2073 27.987 11.2945 28.7821 12.6733C29.5772 14.0256 29.9747 15.5105 29.9747 17.128H32.519C32.519 15.0598 32.0022 13.1374 30.9686 11.3608C29.935 9.63725 28.5568 8.25842 26.8342 7.22429C25.0585 6.19017 23.1371 5.6731 21.0699 5.6731ZM7.91137 6.94587C7.99087 6.94587 8.08363 6.98565 8.18964 7.0652L13.3974 12.3949C13.4239 12.501 13.3974 12.5938 13.3179 12.6733L9.54127 16.4121L9.81955 17.2076L10.3363 18.3212C10.7604 19.2228 11.2507 20.0978 11.8072 20.9463C12.5758 22.1395 13.4239 23.1604 14.3515 24.0089C15.5971 25.2287 17.0945 26.3423 18.8437 27.3499C19.7182 27.8537 20.4603 28.225 21.0699 28.4636L21.865 28.8216L25.7211 24.9635C25.7741 24.9105 25.8138 24.884 25.8403 24.884C25.8668 24.884 25.9066 24.9105 25.9596 24.9635L31.3264 30.333C31.3794 30.386 31.4059 30.4258 31.4059 30.4523C31.4059 30.4523 31.3794 30.4788 31.3264 30.5319L27.351 34.4695C26.7679 34.9733 26.1319 35.1059 25.4428 34.8672C20.0363 32.7725 15.5308 29.9087 11.9265 26.276C9.70029 24.0487 7.75235 21.5164 6.08269 18.6792C4.89008 16.6375 3.96249 14.662 3.29992 12.7529V12.7131C3.19391 12.4745 3.18066 12.196 3.26017 11.8779C3.33968 11.5331 3.48544 11.268 3.69746 11.0824L7.63309 7.0652C7.7126 6.98565 7.80536 6.94587 7.91137 6.94587ZM21.0699 10.7642V13.3097C22.13 13.3097 23.0311 13.6809 23.7731 14.4234C24.5152 15.1658 24.8862 16.0674 24.8862 17.128H27.4305C27.4305 15.9878 27.139 14.9272 26.5559 13.9461C25.9993 12.965 25.2308 12.196 24.2502 11.6392C23.2696 11.0559 22.2095 10.7642 21.0699 10.7642Z" fill="black"/>
</svg>