<svg width="20" height="20" viewBox="0 0 20 20" fill="none" xmlns="http://www.w3.org/2000/svg">
<path d="M6.52439 13.4759C4.73223 11.6802 3.35399 9.51473 2.48606 7.13085C2.00856 5.82752 2.44606 4.39585 3.42772 3.41419L4.03522 2.80752C4.19855 2.64387 4.39254 2.51403 4.6061 2.42544C4.81966 2.33686 5.0486 2.29126 5.27981 2.29126C5.51101 2.29126 5.73995 2.33686 5.95351 2.42544C6.16707 2.51403 6.36107 2.64387 6.52439 2.80752L7.94689 4.23002C8.11054 4.39334 8.24038 4.58734 8.32896 4.8009C8.41755 5.01446 8.46315 5.2434 8.46315 5.4746C8.46315 5.70581 8.41755 5.93474 8.32896 6.14831C8.24038 6.36187 8.11054 6.55586 7.94689 6.71919L7.59689 7.06919C7.45679 7.20925 7.34566 7.37554 7.26984 7.55856C7.19402 7.74158 7.15499 7.93775 7.15499 8.13585C7.15499 8.33396 7.19402 8.53012 7.26984 8.71314C7.34566 8.89616 7.45679 9.06245 7.59689 9.20252L10.7969 12.4034C10.937 12.5434 11.1032 12.6546 11.2863 12.7304C11.4693 12.8062 11.6655 12.8452 11.8636 12.8452C12.0617 12.8452 12.2578 12.8062 12.4408 12.7304C12.6239 12.6546 12.7902 12.5434 12.9302 12.4034L13.2811 12.0534C13.4444 11.8897 13.6384 11.7599 13.8519 11.6713C14.0655 11.5827 14.2944 11.5371 14.5256 11.5371C14.7568 11.5371 14.9858 11.5827 15.1993 11.6713C15.4129 11.7599 15.6069 11.8897 15.7702 12.0534L17.1927 13.4759C17.3564 13.6392 17.4862 13.8332 17.5748 14.0467C17.6634 14.2603 17.709 14.4892 17.709 14.7204C17.709 14.9516 17.6634 15.1806 17.5748 15.3941C17.4862 15.6077 17.3564 15.8017 17.1927 15.965L16.5861 16.5717C15.6044 17.5542 14.1727 17.9917 12.8694 17.5142C10.4855 16.6463 8.32003 15.268 6.52439 13.4759Z" stroke="white" stroke-width="1.5" stroke-linejoin="round"/>
</svg>
