<svg width="64" height="64" viewBox="0 0 64 64" fill="none" xmlns="http://www.w3.org/2000/svg">
<g clip-path="url(#clip0_992_819)">
<path d="M25.4771 35.3592C25.4771 36.0923 25.2967 36.724 24.9357 37.2541C24.5805 37.7843 24.0672 38.1903 23.396 38.4724C22.7306 38.7543 21.9355 38.8953 21.0105 38.8953C20.5593 38.8953 20.1279 38.87 19.7162 38.8193C19.3045 38.7685 18.9154 38.6952 18.5488 38.5991C18.1879 38.4976 17.858 38.3766 17.5591 38.2355V36.3237C18.061 36.5436 18.6221 36.7438 19.2425 36.9243C19.8629 37.099 20.4944 37.1865 21.1375 37.1865C21.6619 37.1865 22.0961 37.1188 22.4401 36.9835C22.7899 36.8424 23.0491 36.6451 23.2185 36.3914C23.3877 36.1319 23.4723 35.8302 23.4723 35.4862C23.4723 35.1197 23.3734 34.8095 23.1761 34.5557C22.9788 34.3018 22.6798 34.0706 22.2795 33.8619C21.8847 33.6477 21.3884 33.4192 20.7906 33.1767C20.3846 33.0132 19.9954 32.8271 19.6232 32.6184C19.2566 32.4097 18.9295 32.1645 18.6419 31.8824C18.3543 31.6005 18.1259 31.2677 17.9567 30.8843C17.7931 30.4952 17.7114 30.0382 17.7114 29.5138C17.7114 28.8145 17.8777 28.2167 18.2105 27.7204C18.5488 27.2243 19.0226 26.8435 19.6316 26.5784C20.2463 26.3134 20.9626 26.1809 21.7804 26.1809C22.4289 26.1809 23.0379 26.2486 23.6076 26.3839C24.1828 26.5193 24.7468 26.7111 25.2993 26.9591L24.6565 28.5917C24.149 28.3832 23.6555 28.2167 23.1761 28.0928C22.7024 27.9686 22.2173 27.9067 21.721 27.9067C21.2924 27.9067 20.9288 27.9715 20.6298 28.1011C20.3309 28.2307 20.1025 28.4142 19.9446 28.651C19.7924 28.8822 19.7162 29.1585 19.7162 29.48C19.7162 29.8409 19.8036 30.1454 19.9785 30.3937C20.1589 30.636 20.4353 30.8588 20.8075 31.0618C21.1854 31.265 21.6703 31.4905 22.2626 31.7387C22.945 32.0206 23.523 32.3168 23.9967 32.627C24.4761 32.937 24.8426 33.3094 25.0963 33.7435C25.3501 34.1721 25.4771 34.7106 25.4771 35.3592ZM27.8626 26.3584H31.5424C33.1385 26.3584 34.3425 26.5898 35.1547 27.0522C35.9667 27.5145 36.3728 28.3127 36.3728 29.4461C36.3728 29.9198 36.2882 30.3485 36.119 30.732C35.9555 31.1099 35.7158 31.4228 35.3999 31.671C35.0842 31.9136 34.6949 32.0771 34.2326 32.1616V32.2462C34.7118 32.3308 35.1378 32.4802 35.51 32.6946C35.8879 32.9089 36.1838 33.2162 36.3982 33.6167C36.6182 34.017 36.728 34.536 36.728 35.1731C36.728 35.9289 36.5476 36.5717 36.1867 37.1019C35.8314 37.632 35.321 38.0354 34.6556 38.3116C33.9956 38.5879 33.2117 38.7261 32.3039 38.7261H27.8626V26.3584ZM29.8929 31.4595H31.8385C32.7578 31.4595 33.3951 31.3101 33.7504 31.0111C34.1057 30.7123 34.2834 30.2753 34.2834 29.6999C34.2834 29.1135 34.0718 28.6906 33.6489 28.4311C33.2315 28.1716 32.566 28.042 31.6525 28.042H29.8929V31.4595ZM29.8929 33.1007V37.0259H32.0332C32.9806 37.0259 33.646 36.8424 34.0294 36.4759C34.413 36.1093 34.6048 35.6132 34.6048 34.987C34.6048 34.6036 34.5174 34.2708 34.3425 33.9889C34.1733 33.7068 33.8941 33.4897 33.505 33.3375C33.1159 33.1795 32.5915 33.1007 31.9317 33.1007H29.8929ZM41.2961 38.7261H39.2827V26.3584H46.2703V28.0673H41.2961V31.9248H45.9489V33.6251H41.2961V38.7261Z" fill="white"/>
<path d="M32 64L10.6667 53.3334L0 32L21.3334 42.6666L32 64Z" fill="#267E57"/>
<path d="M64 32L53.3334 53.3334L32 64L42.6666 42.6666L64 32Z" fill="#267E57"/>
<path d="M32 0L10.6667 10.6667L0 32L21.3334 21.3334L32 0Z" fill="#267E57"/>
<path d="M32 0L42.6666 21.3334L64 32L53.3334 10.6667L32 0Z" fill="#267E57"/>
</g>
<defs>
<clipPath id="clip0_992_819">
<rect width="64" height="64" fill="white"/>
</clipPath>
</defs>
</svg>
