<svg width="139" height="50" viewBox="0 0 139 50" fill="none" xmlns="http://www.w3.org/2000/svg">
<rect width="139" height="50" rx="8" fill="#BDBDBD" fill-opacity="0.2"/>
<path d="M61.7727 22.2727C61.7045 21.697 61.428 21.25 60.9432 20.9318C60.4583 20.6136 59.8636 20.4545 59.1591 20.4545C58.6439 20.4545 58.1932 20.5379 57.8068 20.7045C57.4242 20.8712 57.125 21.1004 56.9091 21.392C56.697 21.6837 56.5909 22.0152 56.5909 22.3864C56.5909 22.697 56.6648 22.964 56.8125 23.1875C56.964 23.4072 57.1572 23.5909 57.392 23.7386C57.6269 23.8826 57.8731 24.0019 58.1307 24.0966C58.3883 24.1875 58.625 24.2614 58.8409 24.3182L60.0227 24.6364C60.3258 24.7159 60.6629 24.8258 61.0341 24.9659C61.4091 25.1061 61.767 25.2973 62.108 25.5398C62.4527 25.7784 62.7367 26.0852 62.9602 26.4602C63.1837 26.8352 63.2955 27.2955 63.2955 27.8409C63.2955 28.4697 63.1307 29.0379 62.8011 29.5455C62.4754 30.053 61.9981 30.4564 61.3693 30.7557C60.7443 31.0549 59.9848 31.2045 59.0909 31.2045C58.2576 31.2045 57.536 31.0701 56.9261 30.8011C56.3201 30.5322 55.8428 30.1572 55.4943 29.6761C55.1496 29.1951 54.9545 28.6364 54.9091 28H56.3636C56.4015 28.4394 56.5492 28.803 56.8068 29.0909C57.0682 29.375 57.3977 29.5871 57.7955 29.7273C58.197 29.8636 58.6288 29.9318 59.0909 29.9318C59.6288 29.9318 60.1117 29.8447 60.5398 29.6705C60.9678 29.4924 61.3068 29.2462 61.5568 28.9318C61.8068 28.6136 61.9318 28.2424 61.9318 27.8182C61.9318 27.4318 61.8239 27.1174 61.608 26.875C61.392 26.6326 61.108 26.4356 60.7557 26.2841C60.4034 26.1326 60.0227 26 59.6136 25.8864L58.1818 25.4773C57.2727 25.2159 56.553 24.8428 56.0227 24.358C55.4924 23.8731 55.2273 23.2386 55.2273 22.4545C55.2273 21.803 55.4034 21.2348 55.7557 20.75C56.1117 20.2614 56.589 19.8826 57.1875 19.6136C57.7898 19.3409 58.4621 19.2045 59.2045 19.2045C59.9545 19.2045 60.6212 19.339 61.2045 19.608C61.7879 19.8731 62.25 20.2367 62.5909 20.6989C62.9356 21.161 63.1174 21.6856 63.1364 22.2727H61.7727ZM69.0895 31.1818C68.2486 31.1818 67.5232 30.9962 66.9134 30.625C66.3073 30.25 65.8395 29.7273 65.5099 29.0568C65.1842 28.3826 65.0213 27.5985 65.0213 26.7045C65.0213 25.8106 65.1842 25.0227 65.5099 24.3409C65.8395 23.6553 66.2978 23.1212 66.8849 22.7386C67.4759 22.3523 68.1652 22.1591 68.9531 22.1591C69.4077 22.1591 69.8565 22.2348 70.2997 22.3864C70.7429 22.5379 71.1463 22.7841 71.5099 23.125C71.8736 23.4621 72.1634 23.9091 72.3793 24.4659C72.5952 25.0227 72.7031 25.7083 72.7031 26.5227V27.0909H65.9759V25.9318H71.3395C71.3395 25.4394 71.241 25 71.044 24.6136C70.8509 24.2273 70.5743 23.9223 70.2145 23.6989C69.8584 23.4754 69.438 23.3636 68.9531 23.3636C68.419 23.3636 67.9569 23.4962 67.5668 23.7614C67.1804 24.0227 66.883 24.3636 66.6747 24.7841C66.4664 25.2045 66.3622 25.6553 66.3622 26.1364V26.9091C66.3622 27.5682 66.4759 28.1269 66.7031 28.5852C66.9342 29.0398 67.2543 29.3864 67.6634 29.625C68.0724 29.8598 68.5478 29.9773 69.0895 29.9773C69.4418 29.9773 69.7599 29.928 70.044 29.8295C70.3319 29.7273 70.58 29.5758 70.7884 29.375C70.9967 29.1705 71.1577 28.9167 71.2713 28.6136L72.5668 28.9773C72.4304 29.4167 72.2012 29.803 71.8793 30.1364C71.5573 30.4659 71.1596 30.7235 70.6861 30.9091C70.2126 31.0909 69.6804 31.1818 69.0895 31.1818ZM77.3111 31.2045C76.758 31.2045 76.2562 31.1004 75.8054 30.892C75.3546 30.6799 74.9967 30.375 74.7315 29.9773C74.4664 29.5758 74.3338 29.0909 74.3338 28.5227C74.3338 28.0227 74.4323 27.6174 74.6293 27.3068C74.8262 26.9924 75.0895 26.7462 75.419 26.5682C75.7486 26.3902 76.1122 26.2576 76.5099 26.1705C76.9115 26.0795 77.3149 26.0076 77.7202 25.9545C78.2505 25.8864 78.6804 25.8352 79.0099 25.8011C79.3433 25.7633 79.5857 25.7008 79.7372 25.6136C79.8925 25.5265 79.9702 25.375 79.9702 25.1591V25.1136C79.9702 24.553 79.8168 24.1174 79.5099 23.8068C79.2069 23.4962 78.7467 23.3409 78.1293 23.3409C77.4891 23.3409 76.9872 23.4811 76.6236 23.7614C76.2599 24.0417 76.0043 24.3409 75.8565 24.6591L74.5838 24.2045C74.8111 23.6742 75.1141 23.2614 75.4929 22.9659C75.8755 22.6667 76.2921 22.4583 76.7429 22.3409C77.1974 22.2197 77.6444 22.1591 78.0838 22.1591C78.3641 22.1591 78.6861 22.1932 79.0497 22.2614C79.4171 22.3258 79.7713 22.4602 80.1122 22.6648C80.4569 22.8693 80.7429 23.178 80.9702 23.5909C81.1974 24.0038 81.3111 24.5568 81.3111 25.25V31H79.9702V29.8182H79.902C79.8111 30.0076 79.6596 30.2102 79.4474 30.4261C79.2353 30.642 78.9531 30.8258 78.6009 30.9773C78.2486 31.1288 77.8187 31.2045 77.3111 31.2045ZM77.5156 30C78.0459 30 78.4929 29.8958 78.8565 29.6875C79.224 29.4792 79.5005 29.2102 79.6861 28.8807C79.8755 28.5511 79.9702 28.2045 79.9702 27.8409V26.6136C79.9134 26.6818 79.7884 26.7443 79.5952 26.8011C79.4058 26.8542 79.1861 26.9015 78.9361 26.9432C78.6899 26.9811 78.4493 27.0152 78.2145 27.0455C77.9834 27.072 77.7959 27.0947 77.652 27.1136C77.3035 27.1591 76.9777 27.233 76.6747 27.3352C76.3755 27.4337 76.133 27.5833 75.9474 27.7841C75.7656 27.9811 75.6747 28.25 75.6747 28.5909C75.6747 29.0568 75.8471 29.4091 76.1918 29.6477C76.5402 29.8826 76.9815 30 77.5156 30ZM83.7585 31V22.2727H85.054V23.5909H85.1449C85.304 23.1591 85.5919 22.8087 86.0085 22.5398C86.4252 22.2708 86.8949 22.1364 87.4176 22.1364C87.5161 22.1364 87.6392 22.1383 87.7869 22.142C87.9347 22.1458 88.0464 22.1515 88.1222 22.1591V23.5227C88.0767 23.5114 87.9725 23.4943 87.8097 23.4716C87.6506 23.4451 87.482 23.4318 87.304 23.4318C86.8797 23.4318 86.5009 23.5208 86.1676 23.6989C85.8381 23.8731 85.5767 24.1155 85.3835 24.4261C85.1941 24.733 85.0994 25.0833 85.0994 25.4773V31H83.7585ZM92.9915 31.1818C92.1733 31.1818 91.4688 30.9886 90.8778 30.6023C90.2869 30.2159 89.8324 29.6837 89.5142 29.0057C89.196 28.3277 89.0369 27.553 89.0369 26.6818C89.0369 25.7955 89.1998 25.0133 89.5256 24.3352C89.8551 23.6534 90.3134 23.1212 90.9006 22.7386C91.4915 22.3523 92.1809 22.1591 92.9688 22.1591C93.5824 22.1591 94.1354 22.2727 94.6278 22.5C95.1203 22.7273 95.5237 23.0455 95.8381 23.4545C96.1525 23.8636 96.3475 24.3409 96.4233 24.8864H95.0824C94.9801 24.4886 94.7528 24.1364 94.4006 23.8295C94.0521 23.5189 93.5824 23.3636 92.9915 23.3636C92.4688 23.3636 92.0104 23.5 91.6165 23.7727C91.2263 24.0417 90.9214 24.4223 90.7017 24.9148C90.4858 25.4034 90.3778 25.9773 90.3778 26.6364C90.3778 27.3106 90.4839 27.8977 90.696 28.3977C90.9119 28.8977 91.215 29.286 91.6051 29.5625C91.9991 29.839 92.4612 29.9773 92.9915 29.9773C93.34 29.9773 93.6562 29.9167 93.9403 29.7955C94.2244 29.6742 94.465 29.5 94.6619 29.2727C94.8589 29.0455 94.9991 28.7727 95.0824 28.4545H96.4233C96.3475 28.9697 96.16 29.4337 95.8608 29.8466C95.5653 30.2557 95.1733 30.5814 94.6847 30.8239C94.1998 31.0625 93.6354 31.1818 92.9915 31.1818ZM99.7244 25.75V31H98.3835V19.3636H99.7244V23.6364H99.8381C100.043 23.1856 100.349 22.8277 100.759 22.5625C101.171 22.2936 101.721 22.1591 102.406 22.1591C103.001 22.1591 103.522 22.2784 103.969 22.517C104.416 22.7519 104.762 23.1136 105.009 23.6023C105.259 24.0871 105.384 24.7045 105.384 25.4545V31H104.043V25.5455C104.043 24.8523 103.863 24.3163 103.503 23.9375C103.147 23.5549 102.652 23.3636 102.02 23.3636C101.58 23.3636 101.187 23.4564 100.838 23.642C100.493 23.8277 100.221 24.0985 100.02 24.4545C99.8229 24.8106 99.7244 25.2424 99.7244 25.75Z" fill="black"/>
<path d="M47.75 31.75L44.4928 28.4928M44.4928 28.4928C45.0499 27.9356 45.4919 27.2742 45.7934 26.5462C46.095 25.8182 46.2502 25.038 46.2502 24.25C46.2502 23.4621 46.095 22.6818 45.7934 21.9539C45.4919 21.2259 45.0499 20.5644 44.4928 20.0073C43.9356 19.4501 43.2741 19.0081 42.5462 18.7066C41.8182 18.4051 41.038 18.2499 40.25 18.2499C39.4621 18.2499 38.6818 18.4051 37.9538 18.7066C37.2259 19.0081 36.5644 19.4501 36.0073 20.0073C34.882 21.1325 34.2498 22.6587 34.2498 24.25C34.2498 25.8414 34.882 27.3675 36.0073 28.4928C37.1325 29.618 38.6587 30.2502 40.25 30.2502C41.8413 30.2502 43.3675 29.618 44.4928 28.4928Z" stroke="black" stroke-width="1.5" stroke-linecap="round" stroke-linejoin="round"/>
</svg>
