<svg xmlns="http://www.w3.org/2000/svg" version="1.1" xmlns:xlink="http://www.w3.org/1999/xlink" xmlns:svgjs="http://svgjs.dev/svgjs" width="253" height="95" viewBox="0 0 253 95"><g transform="matrix(1,0,0,1,-1.2121212121213603,-1.2593087094368798)"><svg viewBox="0 0 396 129" data-background-color="#ffffff" preserveAspectRatio="xMidYMid meet" height="95" width="253" xmlns="http://www.w3.org/2000/svg" xmlns:xlink="http://www.w3.org/1999/xlink"><g id="tight-bounds" transform="matrix(1,0,0,1,0.24000000000003752,0.24954043551053928)"><svg viewBox="0 0 395.5199999999999 128.50091912897892" height="128.50091912897892" width="395.5199999999999"><g><svg viewBox="0 0 395.5199999999999 128.50091912897892" height="128.50091912897892" width="395.5199999999999"><g><svg viewBox="0 0 626.7115625006618 203.61299507001812" height="128.50091912897892" width="395.5199999999999"><g><rect width="4.585213580661819" height="203.61299507001812" x="214.6031720072727" y="0" fill="#ffffff" opacity="1" stroke-width="0" stroke="transparent" fill-opacity="1" class="rect-qz-0" data-fill-palette-color="primary" rx="1%" id="qz-0" data-palette-color="#ffffff"></rect></g><g transform="matrix(1,0,0,1,231.19156250066177,0.5064999877363476)"><svg viewBox="0 0 395.52 202.59999509454542" height="202.59999509454542" width="395.52"><g id="textblocktransform"><svg viewBox="0 0 395.52 202.59999509454542" height="202.59999509454542" width="395.52" id="textblock"><g><svg viewBox="0 0 395.52 165.17454545454544" height="165.17454545454544" width="395.52"><g transform="matrix(1,0,0,1,0,0)"><svg width="395.52" viewBox="-0.45000000000000107 -35.6 286.2 114.60000000000002" height="165.17454545454544" data-palette-color="#ffffff"><svg></svg><svg></svg><svg></svg><g class="wordmark-text-0" data-fill-palette-color="primary" id="text-0"><path d="M15.65 0.6c-2.767 0-5.44-0.377-8.02-1.13-2.587-0.747-4.663-1.72-6.23-2.92v0l2.75-6.1c1.5 1.1 3.283 1.983 5.35 2.65 2.067 0.667 4.133 1 6.2 1v0c2.3 0 4-0.343 5.1-1.03 1.1-0.68 1.65-1.587 1.65-2.72v0c0-0.833-0.323-1.527-0.97-2.08-0.653-0.547-1.487-0.987-2.5-1.32-1.02-0.333-2.397-0.7-4.13-1.1v0c-2.667-0.633-4.85-1.267-6.55-1.9-1.7-0.633-3.157-1.65-4.37-3.05-1.22-1.4-1.83-3.267-1.83-5.6v0c0-2.033 0.55-3.877 1.65-5.53 1.1-1.647 2.757-2.953 4.97-3.92 2.22-0.967 4.93-1.45 8.13-1.45v0c2.233 0 4.417 0.267 6.55 0.8 2.133 0.533 4 1.3 5.6 2.3v0l-2.5 6.15c-3.233-1.833-6.467-2.75-9.7-2.75v0c-2.267 0-3.94 0.367-5.02 1.1-1.087 0.733-1.63 1.7-1.63 2.9v0c0 1.2 0.627 2.09 1.88 2.67 1.247 0.587 3.153 1.163 5.72 1.73v0c2.667 0.633 4.85 1.267 6.55 1.9 1.7 0.633 3.16 1.633 4.38 3 1.213 1.367 1.82 3.217 1.82 5.55v0c0 2-0.557 3.823-1.67 5.47-1.12 1.653-2.797 2.963-5.03 3.93-2.233 0.967-4.95 1.45-8.15 1.45zM81.2-35h7.75l-11.45 35h-8.7l-7.7-23.7-7.95 23.7h-8.65l-11.5-35h8.4l7.9 24.6 8.25-24.6h7.5l8 24.8zM93.45 0v-35h8.1v35zM136.3-28.5h-18.35v9.25h16.2v6.5h-16.2v12.75h-8.1v-35h26.45zM149.3 0v-28.4h-11.2v-6.6h30.5v6.6h-11.2v28.4z" fill="#ffffff" fill-rule="nonzero" stroke="none" stroke-width="1" stroke-linecap="butt" stroke-linejoin="miter" stroke-miterlimit="10" stroke-dasharray="" stroke-dashoffset="0" font-family="none" font-weight="none" font-size="none" text-anchor="none" style="mix-blend-mode: normal" data-fill-palette-color="primary" opacity="1"></path><path transform="translate(0,39.2)" d="M19.3-35c3.1 0 5.793 0.517 8.08 1.55 2.28 1.033 4.037 2.5 5.27 4.4 1.233 1.9 1.85 4.15 1.85 6.75v0c0 2.567-0.617 4.807-1.85 6.72-1.233 1.92-2.99 3.387-5.27 4.4-2.287 1.02-4.98 1.53-8.08 1.53v0h-7.05v9.65h-8.1v-35zM18.85-16.25c2.433 0 4.283-0.523 5.55-1.57 1.267-1.053 1.9-2.547 1.9-4.48v0c0-1.967-0.633-3.477-1.9-4.53-1.267-1.047-3.117-1.57-5.55-1.57v0h-6.6v12.15zM71.25 0h-8.7l-6.75-9.75h-0.4-7.05v9.75h-8.1v-35h15.15c3.1 0 5.793 0.517 8.08 1.55 2.28 1.033 4.037 2.5 5.27 4.4 1.233 1.9 1.85 4.15 1.85 6.75v0c0 2.6-0.627 4.84-1.88 6.72-1.247 1.887-3.02 3.33-5.32 4.33v0zM62.4-22.3c0-1.967-0.633-3.477-1.9-4.53-1.267-1.047-3.117-1.57-5.55-1.57v0h-6.6v12.2h6.6c2.433 0 4.283-0.533 5.55-1.6 1.267-1.067 1.9-2.567 1.9-4.5zM93.95 0.6c-3.633 0-6.907-0.783-9.82-2.35-2.92-1.567-5.207-3.723-6.86-6.47-1.647-2.753-2.47-5.847-2.47-9.28v0c0-3.433 0.823-6.527 2.47-9.28 1.653-2.747 3.94-4.903 6.86-6.47 2.913-1.567 6.187-2.35 9.82-2.35v0c3.633 0 6.9 0.783 9.8 2.35 2.9 1.567 5.183 3.723 6.85 6.47 1.667 2.753 2.5 5.847 2.5 9.28v0c0 3.433-0.833 6.527-2.5 9.28-1.667 2.747-3.95 4.903-6.85 6.47-2.9 1.567-6.167 2.35-9.8 2.35zM93.95-6.3c2.067 0 3.933-0.477 5.6-1.43 1.667-0.947 2.973-2.27 3.92-3.97 0.953-1.7 1.43-3.633 1.43-5.8v0c0-2.167-0.477-4.1-1.43-5.8-0.947-1.7-2.253-3.027-3.92-3.98-1.667-0.947-3.533-1.42-5.6-1.42v0c-2.067 0-3.933 0.473-5.6 1.42-1.667 0.953-2.977 2.28-3.93 3.98-0.947 1.7-1.42 3.633-1.42 5.8v0c0 2.167 0.473 4.1 1.42 5.8 0.953 1.7 2.263 3.023 3.93 3.97 1.667 0.953 3.533 1.43 5.6 1.43zM134.35-35c3.1 0 5.793 0.517 8.08 1.55 2.28 1.033 4.037 2.5 5.27 4.4 1.233 1.9 1.85 4.15 1.85 6.75v0c0 2.567-0.617 4.807-1.85 6.72-1.233 1.92-2.99 3.387-5.27 4.4-2.287 1.02-4.98 1.53-8.08 1.53v0h-7.05v9.65h-8.1v-35zM133.9-16.25c2.433 0 4.283-0.523 5.55-1.57 1.267-1.053 1.9-2.547 1.9-4.48v0c0-1.967-0.633-3.477-1.9-4.53-1.267-1.047-3.117-1.57-5.55-1.57v0h-6.6v12.15zM163.35-6.5h19.05v6.5h-27.1v-35h26.45v6.5h-18.4v7.6h16.25v6.3h-16.25zM219.85 0h-8.7l-6.75-9.75h-0.4-7.05v9.75h-8.1v-35h15.15c3.1 0 5.793 0.517 8.08 1.55 2.28 1.033 4.037 2.5 5.27 4.4 1.233 1.9 1.85 4.15 1.85 6.75v0c0 2.6-0.623 4.84-1.87 6.72-1.253 1.887-3.03 3.33-5.33 4.33v0zM211-22.3c0-1.967-0.633-3.477-1.9-4.53-1.267-1.047-3.117-1.57-5.55-1.57v0h-6.6v12.2h6.6c2.433 0 4.283-0.533 5.55-1.6 1.267-1.067 1.9-2.567 1.9-4.5zM232.35 0v-28.4h-11.2v-6.6h30.5v6.6h-11.2v28.4zM285.75-35l-13.6 22.6v12.4h-8.1v-12.5l-13.55-22.5h8.6l9.35 15.55 9.35-15.55z" fill="#ffffff" fill-rule="nonzero" stroke="none" stroke-width="1" stroke-linecap="butt" stroke-linejoin="miter" stroke-miterlimit="10" stroke-dasharray="" stroke-dashoffset="0" font-family="none" font-weight="none" font-size="none" text-anchor="none" style="mix-blend-mode: normal" data-fill-palette-color="primary" opacity="1"></path><path transform="translate(0,78.4)" d="M30.3 0l-3.1-7.5h-16.25l-3.1 7.5h-8.3l15.6-35h8l15.65 35zM13.55-13.65h11.1l-5.55-13.4zM57.25 0.6c-5 0-8.89-1.383-11.67-4.15-2.787-2.767-4.18-6.717-4.18-11.85v0-19.6h8.1v19.3c0 6.267 2.6 9.4 7.8 9.4v0c2.533 0 4.467-0.76 5.8-2.28 1.333-1.513 2-3.887 2-7.12v0-19.3h8v19.6c0 5.133-1.39 9.083-4.17 11.85-2.787 2.767-6.68 4.15-11.68 4.15zM97.85 0.6c-3.567 0-6.79-0.777-9.67-2.33-2.887-1.547-5.153-3.697-6.8-6.45-1.653-2.747-2.48-5.853-2.48-9.32v0c0-3.467 0.827-6.577 2.48-9.33 1.647-2.747 3.913-4.893 6.8-6.44 2.88-1.553 6.12-2.33 9.72-2.33v0c3.033 0 5.777 0.533 8.23 1.6 2.447 1.067 4.503 2.6 6.17 4.6v0l-5.2 4.8c-2.367-2.733-5.3-4.1-8.8-4.1v0c-2.167 0-4.1 0.473-5.8 1.42-1.7 0.953-3.023 2.28-3.97 3.98-0.953 1.7-1.43 3.633-1.43 5.8v0c0 2.167 0.477 4.1 1.43 5.8 0.947 1.7 2.27 3.023 3.97 3.97 1.7 0.953 3.633 1.43 5.8 1.43v0c3.5 0 6.433-1.383 8.8-4.15v0l5.2 4.8c-1.667 2.033-3.733 3.583-6.2 4.65-2.467 1.067-5.217 1.6-8.25 1.6zM124.65 0v-28.4h-11.2v-6.6h30.5v6.6h-11.2v28.4zM148.3 0v-35h8.1v35zM181.65 0.6c-3.633 0-6.907-0.783-9.82-2.35-2.92-1.567-5.203-3.723-6.85-6.47-1.653-2.753-2.48-5.847-2.48-9.28v0c0-3.433 0.827-6.527 2.48-9.28 1.647-2.747 3.93-4.903 6.85-6.47 2.913-1.567 6.187-2.35 9.82-2.35v0c3.633 0 6.9 0.783 9.8 2.35 2.9 1.567 5.183 3.723 6.85 6.47 1.667 2.753 2.5 5.847 2.5 9.28v0c0 3.433-0.833 6.527-2.5 9.28-1.667 2.747-3.95 4.903-6.85 6.47-2.9 1.567-6.167 2.35-9.8 2.35zM181.65-6.3c2.067 0 3.933-0.477 5.6-1.43 1.667-0.947 2.977-2.27 3.93-3.97 0.947-1.7 1.42-3.633 1.42-5.8v0c0-2.167-0.473-4.1-1.42-5.8-0.953-1.7-2.263-3.027-3.93-3.98-1.667-0.947-3.533-1.42-5.6-1.42v0c-2.067 0-3.933 0.473-5.6 1.42-1.667 0.953-2.973 2.28-3.92 3.98-0.953 1.7-1.43 3.633-1.43 5.8v0c0 2.167 0.477 4.1 1.43 5.8 0.947 1.7 2.253 3.023 3.92 3.97 1.667 0.953 3.533 1.43 5.6 1.43zM231-35h8v35h-6.65l-17.45-21.25v21.25h-8v-35h6.7l17.4 21.25zM258.8 0.6c-2.767 0-5.44-0.377-8.02-1.13-2.587-0.747-4.663-1.72-6.23-2.92v0l2.75-6.1c1.5 1.1 3.283 1.983 5.35 2.65 2.067 0.667 4.133 1 6.2 1v0c2.3 0 4-0.343 5.1-1.03 1.1-0.68 1.65-1.587 1.65-2.72v0c0-0.833-0.323-1.527-0.97-2.08-0.653-0.547-1.487-0.987-2.5-1.32-1.02-0.333-2.397-0.7-4.13-1.1v0c-2.667-0.633-4.85-1.267-6.55-1.9-1.7-0.633-3.157-1.65-4.37-3.05-1.22-1.4-1.83-3.267-1.83-5.6v0c0-2.033 0.55-3.877 1.65-5.53 1.1-1.647 2.76-2.953 4.98-3.92 2.213-0.967 4.92-1.45 8.12-1.45v0c2.233 0 4.417 0.267 6.55 0.8 2.133 0.533 4 1.3 5.6 2.3v0l-2.5 6.15c-3.233-1.833-6.467-2.75-9.7-2.75v0c-2.267 0-3.94 0.367-5.02 1.1-1.087 0.733-1.63 1.7-1.63 2.9v0c0 1.2 0.627 2.09 1.88 2.67 1.247 0.587 3.153 1.163 5.72 1.73v0c2.667 0.633 4.85 1.267 6.55 1.9 1.7 0.633 3.16 1.633 4.38 3 1.213 1.367 1.82 3.217 1.82 5.55v0c0 2-0.557 3.823-1.67 5.47-1.12 1.653-2.797 2.963-5.03 3.93-2.233 0.967-4.95 1.45-8.15 1.45z" fill="#ffffff" fill-rule="nonzero" stroke="none" stroke-width="1" stroke-linecap="butt" stroke-linejoin="miter" stroke-miterlimit="10" stroke-dasharray="" stroke-dashoffset="0" font-family="none" font-weight="none" font-size="none" text-anchor="none" style="mix-blend-mode: normal" data-fill-palette-color="primary" opacity="1"></path></g></svg></g></svg></g><g transform="matrix(1,0,0,1,0,177.1777223672727)"><svg viewBox="0 0 159.97772727272726 25.422272727272727" height="25.422272727272727" width="159.97772727272726"><g transform="matrix(1,0,0,1,0,0)"><svg width="159.97772727272726" viewBox="4.15 -35.6 227.79 36.2" height="25.422272727272727" data-palette-color="#ad1d18"><path d="M4.15 0L4.15-35 12.25-35 12.25-6.6 29.8-6.6 29.8 0 4.15 0ZM50.7 0.6Q45.25 0.6 40.87-1.75 36.5-4.1 34.02-8.22 31.55-12.35 31.55-17.5L31.55-17.5Q31.55-22.65 34.02-26.78 36.5-30.9 40.87-33.25 45.25-35.6 50.7-35.6L50.7-35.6Q56.15-35.6 60.5-33.25 64.85-30.9 67.35-26.78 69.85-22.65 69.85-17.5L69.85-17.5Q69.85-12.35 67.35-8.22 64.85-4.1 60.5-1.75 56.15 0.6 50.7 0.6L50.7 0.6ZM50.7-6.3Q53.8-6.3 56.3-7.73 58.8-9.15 60.22-11.7 61.65-14.25 61.65-17.5L61.65-17.5Q61.65-20.75 60.22-23.3 58.8-25.85 56.3-27.28 53.8-28.7 50.7-28.7L50.7-28.7Q47.6-28.7 45.1-27.28 42.6-25.85 41.17-23.3 39.75-20.75 39.75-17.5L39.75-17.5Q39.75-14.25 41.17-11.7 42.6-9.15 45.1-7.73 47.6-6.3 50.7-6.3L50.7-6.3ZM100.05-35L108.05-35 108.05 0 101.4 0 83.95-21.25 83.95 0 75.95 0 75.95-35 82.65-35 100.05-13.75 100.05-35ZM116.34 0L116.34-35 132.24-35Q137.94-35 142.32-32.83 146.69-30.65 149.12-26.7 151.54-22.75 151.54-17.5L151.54-17.5Q151.54-12.25 149.12-8.3 146.69-4.35 142.32-2.18 137.94 0 132.24 0L132.24 0 116.34 0ZM124.44-6.65L131.84-6.65Q137.09-6.65 140.22-9.58 143.34-12.5 143.34-17.5L143.34-17.5Q143.34-22.5 140.22-25.43 137.09-28.35 131.84-28.35L131.84-28.35 124.44-28.35 124.44-6.65ZM174.59 0.6Q169.14 0.6 164.77-1.75 160.39-4.1 157.92-8.22 155.44-12.35 155.44-17.5L155.44-17.5Q155.44-22.65 157.92-26.78 160.39-30.9 164.77-33.25 169.14-35.6 174.59-35.6L174.59-35.6Q180.04-35.6 184.39-33.25 188.74-30.9 191.24-26.78 193.74-22.65 193.74-17.5L193.74-17.5Q193.74-12.35 191.24-8.22 188.74-4.1 184.39-1.75 180.04 0.6 174.59 0.6L174.59 0.6ZM174.59-6.3Q177.69-6.3 180.19-7.73 182.69-9.15 184.12-11.7 185.54-14.25 185.54-17.5L185.54-17.5Q185.54-20.75 184.12-23.3 182.69-25.85 180.19-27.28 177.69-28.7 174.59-28.7L174.59-28.7Q171.49-28.7 168.99-27.28 166.49-25.85 165.06-23.3 163.64-20.75 163.64-17.5L163.64-17.5Q163.64-14.25 165.06-11.7 166.49-9.15 168.99-7.73 171.49-6.3 174.59-6.3L174.59-6.3ZM223.94-35L231.94-35 231.94 0 225.29 0 207.84-21.25 207.84 0 199.84 0 199.84-35 206.54-35 223.94-13.75 223.94-35Z" opacity="1" transform="matrix(1,0,0,1,0,0)" fill="#ad1d18" class="slogan-text-1" data-fill-palette-color="secondary" id="text-1"></path></svg></g></svg></g></svg></g></svg></g><g transform="matrix(1,0,0,1,0,0.5064999877363476)"><svg viewBox="0 0 202.59999509454542 202.59999509454542" height="202.59999509454542" width="202.59999509454542"><g><svg xmlns="http://www.w3.org/2000/svg" xmlns:xlink="http://www.w3.org/1999/xlink" version="1.1" x="0" y="0" viewBox="14.017000000000001 14.018 71.965 71.965" enable-background="new 0 0 100 100" xml:space="preserve" height="202.59999509454542" width="202.59999509454542" class="icon-icon-0" data-fill-palette-color="accent" id="icon-0"><g display="none" fill="#ad1d18" data-fill-palette-color="accent"><path display="inline" d="M75.186 68.916c0 0-6.082 0.422-12.528 0.781-2.398-2.686-2.07-9.439-1.767-12.604 2.509-2.766 4.729-6.279 6.044-10.264 0.136 0.223 0.29 0.414 0.494 0.523 2.248 1.238 1.689-3.824 1.797-5.959 0.111-2.137 1.688-4.947 0-4.947-0.456 0-0.79 0.068-1.047 0.164-0.311-12.205-3.23-21.717-17.954-21.717-15.678 0-17.782 9.639-17.973 21.963-0.247-0.213-0.685-0.41-1.479-0.41-1.688 0-0.114 2.811 0 4.947 0.112 2.135-0.448 7.197 1.799 5.959 0.33-0.184 0.557-0.543 0.711-1.004 1.202 4.068 3.329 7.666 5.796 10.512 0.312 3.045 0.721 10.061-1.726 12.82-6.478-0.354-12.541-0.766-12.541-0.766-5.961 0-10.795 4.832-10.795 10.793v5.396h71.965v-5.396C85.982 73.748 81.146 68.916 75.186 68.916z" fill="#ad1d18" data-fill-palette-color="accent"></path></g><g display="none" fill="#ad1d18" data-fill-palette-color="accent"><polygon display="inline" points="52.996,40.028 52.996,24.036 47.006,24.036 47.006,40.028 14.064,40.028 26.045,75.964    73.957,75.964 85.936,40.028  " fill="#ad1d18" data-fill-palette-color="accent"></polygon></g><g display="none" fill="#ad1d18" data-fill-palette-color="accent"><path display="inline" d="M20.015 14.018v71.965h59.971V14.018H20.015zM35.008 75.988h-5.995v-6h5.995V75.988zM35.008 63.994h-5.995v-5.998h5.995V63.994zM35.008 51.998h-5.995v-5.996h5.995V51.998zM47.001 75.988h-5.994v-6h5.994V75.988zM47.001 63.994h-5.994v-5.998h5.994V63.994zM47.001 51.998h-5.994v-5.996h5.994V51.998zM58.997 75.988h-5.995v-6h5.995V75.988zM58.997 63.994h-5.995v-5.998h5.995V63.994zM58.997 51.998h-5.995v-5.996h5.995V51.998zM70.991 75.988h-5.999v-6h5.999V75.988zM70.991 63.994h-5.999v-5.998h5.999V63.994zM70.991 51.998h-5.999v-5.996h5.999V51.998zM73.99 36.008H26.016V24.014H73.99V36.008z" fill="#ad1d18" data-fill-palette-color="accent"></path></g><g fill="#ad1d18" data-fill-palette-color="accent"><polygon points="50,17.02 14.018,47.074 20.1,47.074 20.1,82.984 44.002,82.984 44.002,64.994 55.996,64.994 55.996,82.984    80.07,82.984 80.07,47.074 85.982,47.074  " fill="#ad1d18" data-fill-palette-color="accent"></polygon><polygon points="77.986,17.016 65.992,17.016 65.992,25.037 77.986,35.008  " fill="#ad1d18" data-fill-palette-color="accent"></polygon></g></svg></g></svg></g></svg></g></svg></g><defs></defs></svg><rect width="395.5199999999999" height="128.50091912897892" fill="none" stroke="none" visibility="hidden"></rect></g></svg></g></svg>