<svg width="111" height="111" viewBox="0 0 111 111" fill="none" xmlns="http://www.w3.org/2000/svg">
<circle cx="55.2885" cy="55.2885" r="55.2885" fill="#B21F18"/>
<g clip-path="url(#clip0_1230_947)">
<path fill-rule="evenodd" clip-rule="evenodd" d="M39.9474 35.3412C40.4067 34.8825 40.9582 34.5268 41.5654 34.2974C42.1727 34.0681 42.8217 33.9704 43.4695 34.0109C44.1173 34.0513 44.7491 34.229 45.323 34.5321C45.897 34.8352 46.4 35.2568 46.7987 35.769L51.5105 41.8223C52.3742 42.9327 52.6787 44.379 52.3374 45.744L50.9015 51.4928C50.8273 51.7905 50.8313 52.1024 50.9132 52.3982C50.995 52.6939 51.152 52.9635 51.3688 53.1807L57.8184 59.6303C58.0359 59.8475 58.3059 60.0047 58.6021 60.0866C58.8984 60.1685 59.2108 60.1722 59.5089 60.0975L65.255 58.6617C65.9286 58.4932 66.6317 58.4801 67.3111 58.6234C67.9906 58.7666 68.6285 59.0625 69.1768 59.4885L75.23 64.1978C77.4062 65.8909 77.6057 69.1065 75.6579 71.0517L72.9437 73.7659C71.0012 75.7084 68.0979 76.5615 65.3915 75.6087C58.4646 73.1714 52.1754 69.2058 46.9903 64.0061C41.7909 58.8218 37.8254 52.5335 35.3878 45.6075C34.4375 42.9038 35.2907 39.9979 37.2332 38.0554L39.9474 35.3412Z" fill="white"/>
</g>
<defs>
<clipPath id="clip0_1230_947">
<rect width="42" height="42" fill="white" transform="translate(35 34)"/>
</clipPath>
</defs>
</svg>
