<?xml version="1.0" encoding="UTF-8"?>
<svg width="48px" height="49px" viewBox="0 0 48 49" version="1.1" xmlns="http://www.w3.org/2000/svg" xmlns:xlink="http://www.w3.org/1999/xlink">
    <title>587CD18B-D889-4C9A-B40A-5EEBF78A60BE</title>
    <defs>
        <polygon id="path-1" points="0 0 48 0 48 49 0 49"></polygon>
    </defs>
    <g id="Pillar-page" stroke="none" stroke-width="1" fill="none" fill-rule="evenodd">
        <g id="Contact-page" transform="translate(-165.000000, -766.000000)">
            <g id="Group-7" transform="translate(134.000000, 746.000000)">
                <g id="whatsapp-icon" transform="translate(31.000000, 20.000000)">
                    <path d="M36.9950618,30.3161379 C37.0526673,32.5087464 36.6030346,33.1418655 35.8162457,34.1526155 C35.0295479,35.160565 32.8337031,36.0545024 31.2326897,35.997406 C29.6345019,35.9404 29.3275156,35.9539514 25.5251886,34.5709909 C20.571572,32.7315306 17.6246682,29.2483819 16.1196336,27.4116319 C12.2132156,22.632432 11.971947,20.1082671 12.002117,18.6383973 C12.0322869,17.1657269 12.5119985,15.8398628 13.5290271,14.4704537 C14.5487902,13.1011349 15.1437127,13.0276866 16.714465,13.0005839 C18.2853084,12.9706806 18.4333327,14.095533 18.7951899,14.9459254 C18.7951899,14.9459254 20.0809227,18.0786362 20.3851745,18.7063348 C20.6895174,19.333943 20.3632078,19.7333464 20.1549348,20.1219088 C19.949305,20.5103809 19.0419274,21.5728067 18.6828046,21.9395966 C18.3236817,22.3063865 18.3593205,22.7600857 18.6224646,23.1350967 C18.8828743,23.5100174 20.2206524,25.5722619 21.108889,26.3954613 C22.7674168,28.0963364 24.9577927,29.2809955 26.4737651,30.0715812 C27.7594066,30.7318934 28.066484,30.2862346 28.414578,29.8542176 C28.7654975,29.4222005 30.0402013,27.8789728 30.434963,27.403501 C30.8269902,26.9280293 32.3978337,27.7214157 34.3331777,28.6723591 C36.2686128,29.6233026 36.9073775,29.9412172 36.9950618,30.3161379" id="Fill-1" fill="#FFFFFF"></path>
                    <g id="Group-5">
                        <mask id="mask-2" fill="white">
                            <use xlink:href="#path-1"></use>
                        </mask>
                        <g id="Clip-4"></g>
                        <path d="M24.0757682,44.2273625 C22.1274554,44.2273625 20.2456888,43.9420175 18.4674976,43.4090094 C16.6893065,42.8760013 15.014779,42.0954198 13.4837724,41.110138 L5.69069782,43.2125438 L7.84359854,35.6187676 C5.6295424,32.3858118 4.32981288,28.4610644 4.32981288,24.2294906 C4.32981288,13.1847221 13.1701299,4.22893345 24.0757682,4.22893345 C34.9813181,4.22893345 43.8243748,13.1847221 43.8243748,24.2294906 C43.8243748,35.2741696 34.9813181,44.2273625 24.0757682,44.2273625 M24.0757682,-4.47529863e-05 C10.8657547,-4.47529863e-05 0.154187672,10.8481686 0.154187672,24.2294906 C0.154187672,28.6683603 1.33425759,32.8272553 3.39418791,36.4074942 L3.39153667,36.4074942 L-2.65124673e-05,49 L12.7794246,45.5894644 C14.4619057,46.504663 16.2640465,47.2207108 18.1565064,47.7079813 C20.0516176,48.1951623 22.034485,48.4562512 24.0757682,48.4562512 C37.288433,48.4562512 48,37.6080378 48,24.2294906 C48,10.8481686 37.288433,-4.47529863e-05 24.0757682,-4.47529863e-05" id="Fill-3" fill="#FFFFFF" mask="url(#mask-2)"></path>
                    </g>
                    <path d="M35.8162627,34.1525396 C35.0294759,35.1605757 32.8336369,36.0544196 31.2327189,35.9974138 C29.6345353,35.9403176 29.3274588,35.9538689 25.5252329,34.5709134 C20.5716295,32.7315501 17.6246424,29.2483235 16.1196118,27.4115801 C12.2132041,22.6323974 11.9720273,20.108332 12.0021061,18.6383771 C12.0322759,17.1658023 12.5120774,15.8398526 13.5291033,14.4704484 C14.5488636,13.1011346 15.1436935,13.0277769 16.7145327,13.0005839 C18.2852808,12.9706807 18.4333958,14.0955291 18.7952522,14.9460088 C18.7952522,14.9460088 20.0808903,18.0787083 20.3852324,18.7063143 C20.6894834,19.3339202 20.3632659,19.7333223 20.1549022,20.1218833 C19.9493642,20.5104442 19.0418978,21.5727759 18.6827759,21.9395645 C18.3237452,22.3063531 18.3593839,22.760141 18.6225273,23.1350603 C18.8829362,23.5099797 20.2207109,25.5722168 21.1089451,26.3955035 C22.7674684,28.0962822 24.9577474,29.280937 26.4737158,30.0716103 C27.7594451,30.7318297 28.0664305,30.2862629 28.4146147,29.8542474 C28.7655333,29.4222319 30.0402337,27.8789193 30.4349943,27.4034493 C30.8270205,26.9279793 32.3977687,27.7213629 34.3331987,28.6723029 C36.2685376,29.6232429 36.9073006,29.9411564 36.9950758,30.3160757 C37.05259,32.5087667 36.6030496,33.1417932 35.8162627,34.1525396" id="Fill-6" fill="#FFFFFF"></path>
                    <path d="M35.8162627,34.1525396 C35.0294759,35.1605757 32.8336369,36.0544196 31.2327189,35.9974138 C29.6345353,35.9403176 29.3274588,35.9538689 25.5252329,34.5709134 C20.5716295,32.7315501 17.6246424,29.2483235 16.1196118,27.4115801 C12.2132041,22.6323974 11.9720273,20.108332 12.0021061,18.6383771 C12.0322759,17.1658023 12.5120774,15.8398526 13.5291033,14.4704484 C14.5488636,13.1011346 15.1436935,13.0277769 16.7145327,13.0005839 C18.2852808,12.9706807 18.4333958,14.0955291 18.7952522,14.9460088 C18.7952522,14.9460088 20.0808903,18.0787083 20.3852324,18.7063143 C20.6894834,19.3339202 20.3632659,19.7333223 20.1549022,20.1218833 C19.9493642,20.5104442 19.0418978,21.5727759 18.6827759,21.9395645 C18.3237452,22.3063531 18.3593839,22.760141 18.6225273,23.1350603 C18.8829362,23.5099797 20.2207109,25.5722168 21.1089451,26.3955035 C22.7674684,28.0962822 24.9577474,29.280937 26.4737158,30.0716103 C27.7594451,30.7318297 28.0664305,30.2862629 28.4146147,29.8542474 C28.7655333,29.4222319 30.0402337,27.8789193 30.4349943,27.4034493 C30.8270205,26.9279793 32.3977687,27.7213629 34.3331987,28.6723029 C36.2685376,29.6232429 36.9073006,29.9411564 36.9950758,30.3160757 C37.05259,32.5087667 36.6030496,33.1417932 35.8162627,34.1525396" id="Fill-8" fill="#FFFFFF"></path>
                </g>
            </g>
        </g>
    </g>
</svg>